#N canvas 5 0 1305 708 10;
#N canvas 182 0 943 700 EQ 0;
#X floatatom 32 115 0 0 0 0 - - -;
#X floatatom 152 81 0 0 0 0 - - -;
#X obj 90 154 biquad~;
#X floatatom 210 81 0 0 0 0 - - -;
#X obj 99 132 equalizer 5000 70 8;
#X obj 152 104 t b f;
#X obj 210 104 t b f;
#X obj 90 7 inlet~;
#X obj 72 1083 outlet~;
#X obj 32 75 loadbang;
#X msg 32 95 100;
#X floatatom 33 256 0 0 0 0 - - -;
#X floatatom 253 211 0 0 0 0 - - -;
#X obj 89 295 biquad~;
#X floatatom 311 211 0 0 0 0 - - -;
#X obj 98 273 equalizer 5000 70 8;
#X obj 151 245 t b f;
#X obj 199 245 t b f;
#X obj 33 216 loadbang;
#X msg 33 236 200;
#X floatatom 33 382 0 0 0 0 - - -;
#X floatatom 374 326 0 0 0 0 - - -;
#X obj 90 421 biquad~;
#X floatatom 432 326 0 0 0 0 - - -;
#X obj 99 399 equalizer 5000 70 8;
#X obj 152 371 t b f;
#X obj 200 371 t b f;
#X obj 33 342 loadbang;
#X floatatom 35 510 0 0 0 0 - - -;
#X floatatom 496 430 0 0 0 0 - - -;
#X obj 90 549 biquad~;
#X floatatom 554 430 0 0 0 0 - - -;
#X obj 99 527 equalizer 5000 70 8;
#X obj 152 499 t b f;
#X obj 200 499 t b f;
#X obj 35 470 loadbang;
#X floatatom 36 659 0 0 0 0 - - -;
#X floatatom 626 549 0 0 0 0 - - -;
#X obj 90 698 biquad~;
#X floatatom 659 550 0 0 0 0 - - -;
#X obj 99 676 equalizer 5000 70 8;
#X obj 152 648 t b f;
#X obj 200 648 t b f;
#X obj 36 619 loadbang;
#X floatatom 38 807 0 0 0 0 - - -;
#X floatatom 731 681 0 0 0 0 - - -;
#X obj 91 846 biquad~;
#X floatatom 789 681 0 0 0 0 - - -;
#X obj 100 824 equalizer 5000 70 8;
#X obj 153 796 t b f;
#X obj 201 796 t b f;
#X obj 38 767 loadbang;
#X msg 33 362 400;
#X msg 35 490 800;
#X msg 36 639 1600;
#X msg 38 787 3200;
#X obj 778 118 loadbang;
#X msg 778 139 0;
#X obj 834 118 loadbang;
#X msg 834 140 100;
#X obj 834 162 s q;
#X obj 778 161 s b;
#X obj 507 48 vsl 24 64 -10 10 0 0 empty empty empty 0 -9 0 10 -261681
-1 -1 3150 1;
#X obj 537 48 vsl 24 64 -10 10 0 0 empty empty empty 0 -9 0 10 -261351
-1 -1 3150 1;
#X obj 507 184 knob 24 24 0 300 0 0 empty empty empty 0 -8 0 8 -262144
-1 -1 767 1;
#X obj 537 184 knob 24 24 0 300 0 0 empty empty empty 0 -8 0 8 -262144
-1 -1 767 1;
#X obj 567 184 knob 24 24 0 300 0 0 empty empty empty 0 -8 0 8 -262144
-1 -1 767 1;
#X obj 597 184 knob 24 24 0 300 0 0 empty empty empty 0 -8 0 8 -262144
-1 -1 767 1;
#X obj 627 184 knob 24 24 0 300 0 0 empty empty empty 0 -8 0 8 -262144
-1 -1 767 1;
#X obj 657 184 knob 24 24 0 300 0 0 empty empty empty 0 -8 0 8 -262144
-1 -1 767 1;
#X obj 567 48 vsl 24 64 -10 10 0 0 empty empty empty 0 -9 0 10 -261088
-1 -1 3150 1;
#X obj 597 48 vsl 24 64 -10 10 0 0 empty empty empty 0 -9 0 10 -260826
-1 -1 3150 1;
#X obj 626 48 vsl 24 64 -10 10 0 0 empty empty empty 0 -9 0 10 -260560
-1 -1 3150 1;
#X obj 656 48 vsl 24 64 -10 10 0 0 empty empty empty 0 -9 0 10 -260113
-1 -1 3150 1;
#X text 505 28 100;
#X text 534 28 200;
#X text 565 28 400;
#X text 594 28 800;
#X text 624 28 1.6K;
#X text 654 28 3.2K;
#X obj 471 165 r q;
#X obj 471 29 r b;
#X obj 727 48 vsl 30 72 0 1.5 0 0 empty empty empty 0 -9 0 10 -184256
-1 -1 4733 0;
#X obj 90 1058 *~;
#X obj 727 1040 line~;
#X msg 754 1016 100;
#X floatatom 727 995 5 0 0 0 - - -;
#X obj 780 9 loadbang;
#X obj 704 123 tgl 15 0 empty empty empty 17 7 0 10 -262144 -1 -1 1
1;
#X text 720 123 on/off;
#X obj 89 42 *~ 1;
#X obj 731 248 sel 0 1;
#X msg 750 271 0;
#X msg 750 292 1;
#X obj 11 42 *~ 0;
#X msg 731 327 1;
#X msg 731 350 0;
#X text 723 29 [gain];
#X msg 780 29 1;
#X obj 687 48 vsl 24 64 -10 10 0 0 empty empty empty 0 -9 0 10 -259654
-1 -1 3150 1;
#X text 685 28 6.4K;
#X obj 687 184 knob 24 24 0 300 0 0 empty empty empty 0 -8 0 8 -262144
-1 -1 767 1;
#X floatatom 812 844 0 0 0 0 - - -;
#X floatatom 869 845 0 0 0 0 - - -;
#X obj 90 975 biquad~;
#X obj 99 953 equalizer 5000 70 8;
#X obj 152 925 t b f;
#X obj 200 925 t b f;
#X floatatom 11 936 0 0 0 0 - - -;
#X obj 11 896 loadbang;
#X msg 11 916 6400;
#X connect 0 0 4 0;
#X connect 1 0 5 0;
#X connect 2 0 13 0;
#X connect 3 0 6 0;
#X connect 4 0 2 0;
#X connect 5 0 4 0;
#X connect 5 1 4 1;
#X connect 6 0 4 0;
#X connect 6 1 4 2;
#X connect 7 0 90 0;
#X connect 7 0 94 0;
#X connect 9 0 10 0;
#X connect 10 0 0 0;
#X connect 11 0 15 0;
#X connect 12 0 16 0;
#X connect 13 0 22 0;
#X connect 14 0 17 0;
#X connect 15 0 13 0;
#X connect 16 0 15 0;
#X connect 16 1 15 1;
#X connect 17 0 15 0;
#X connect 17 1 15 2;
#X connect 18 0 19 0;
#X connect 19 0 11 0;
#X connect 20 0 24 0;
#X connect 21 0 25 0;
#X connect 22 0 30 0;
#X connect 23 0 26 0;
#X connect 24 0 22 0;
#X connect 25 0 24 0;
#X connect 25 1 24 1;
#X connect 26 0 24 0;
#X connect 26 1 24 2;
#X connect 27 0 52 0;
#X connect 28 0 32 0;
#X connect 29 0 33 0;
#X connect 30 0 38 0;
#X connect 31 0 34 0;
#X connect 32 0 30 0;
#X connect 33 0 32 0;
#X connect 33 1 32 1;
#X connect 34 0 32 0;
#X connect 34 1 32 2;
#X connect 35 0 53 0;
#X connect 36 0 40 0;
#X connect 37 0 41 0;
#X connect 38 0 46 0;
#X connect 39 0 42 0;
#X connect 40 0 38 0;
#X connect 41 0 40 0;
#X connect 41 1 40 1;
#X connect 42 0 40 0;
#X connect 42 1 40 2;
#X connect 43 0 54 0;
#X connect 44 0 48 0;
#X connect 45 0 49 0;
#X connect 46 0 104 0;
#X connect 47 0 50 0;
#X connect 48 0 46 0;
#X connect 49 0 48 0;
#X connect 49 1 48 1;
#X connect 50 0 48 0;
#X connect 50 1 48 2;
#X connect 51 0 55 0;
#X connect 52 0 20 0;
#X connect 53 0 28 0;
#X connect 54 0 36 0;
#X connect 55 0 44 0;
#X connect 56 0 57 0;
#X connect 57 0 61 0;
#X connect 58 0 59 0;
#X connect 59 0 60 0;
#X connect 62 0 1 0;
#X connect 63 0 12 0;
#X connect 64 0 3 0;
#X connect 65 0 14 0;
#X connect 66 0 23 0;
#X connect 67 0 31 0;
#X connect 68 0 39 0;
#X connect 69 0 47 0;
#X connect 70 0 21 0;
#X connect 71 0 29 0;
#X connect 72 0 37 0;
#X connect 73 0 45 0;
#X connect 80 0 64 0;
#X connect 80 0 65 0;
#X connect 80 0 66 0;
#X connect 80 0 67 0;
#X connect 80 0 68 0;
#X connect 80 0 69 0;
#X connect 80 0 101 0;
#X connect 81 0 62 0;
#X connect 81 0 63 0;
#X connect 81 0 70 0;
#X connect 81 0 71 0;
#X connect 81 0 72 0;
#X connect 81 0 73 0;
#X connect 81 0 99 0;
#X connect 82 0 86 0;
#X connect 83 0 8 0;
#X connect 84 0 83 1;
#X connect 85 0 84 1;
#X connect 86 0 84 0;
#X connect 87 0 98 0;
#X connect 88 0 91 0;
#X connect 90 0 2 0;
#X connect 91 0 95 0;
#X connect 91 0 96 0;
#X connect 91 1 92 0;
#X connect 91 1 93 0;
#X connect 92 0 94 1;
#X connect 93 0 90 1;
#X connect 94 0 8 0;
#X connect 95 0 94 1;
#X connect 96 0 90 1;
#X connect 98 0 82 0;
#X connect 98 0 88 0;
#X connect 99 0 102 0;
#X connect 101 0 103 0;
#X connect 102 0 106 0;
#X connect 103 0 107 0;
#X connect 104 0 83 0;
#X connect 105 0 104 0;
#X connect 106 0 105 0;
#X connect 106 1 105 1;
#X connect 107 0 105 0;
#X connect 107 1 105 2;
#X connect 108 0 105 0;
#X connect 109 0 110 0;
#X connect 110 0 108 0;
#X coords 0 -1 1 1 265 125 1 500 15;
#X restore 416 -211 pd EQ;
#N canvas 83 97 555 543 reverb 0;
#X obj 38 311 freeverb~;
#X msg 189 391 roomsize \$1;
#X floatatom 189 371 5 0 0 0 - - -;
#X floatatom 255 186 5 0 0 0 - - -;
#X obj 126 45 tgl 15 0 empty empty empty 17 7 0 10 -262144 -1 -1 0
1;
#X msg 126 184 freeze \$1;
#X msg 126 207 bypass \$1;
#X obj 126 65 tgl 15 0 empty empty empty 17 7 0 10 -262144 -1 -1 0
1;
#X msg 222 275 width \$1;
#X floatatom 222 253 5 0 0 0 - - -;
#X msg 255 207 damping \$1;
#X msg 347 294 wet \$1;
#X msg 323 359 dry \$1;
#X floatatom 347 275 5 0 0 0 - - -;
#X floatatom 323 339 5 0 0 0 - - -;
#X obj 344 -37 loadbang;
#X msg 344 -15 0.8;
#X obj 38 455 outlet~;
#X obj 90 454 outlet~;
#X obj 37 -45 inlet~;
#X obj 90 -45 inlet~;
#X obj 323 4 vsl 20 64 0 1 0 0 empty empty empty 0 -9 0 10 -204735
-1 -1 5040 0;
#X obj 347 4 vsl 20 64 0 1 0 0 empty empty empty 0 -9 0 10 -256813
-1 -1 1538 0;
#X text 322 70 dry;
#X text 348 70 wet;
#X text 143 63 bypass;
#X text 142 43 freeze;
#X obj 255 11 knob 25 25 0 1 0 0 empty empty empty 0 -8 0 8 -262144
-1 -1 2041 1;
#X obj 189 8 knob 30 30 0 1 0 0 empty empty empty 0 -8 0 8 -262144
-1 -1 1073 1;
#X obj 222 45 knob 36 36 0 1 0 0 empty empty empty 0 -8 0 8 -262144
-1 -1 2343 1;
#X obj 454 -36 loadbang;
#X msg 454 -15 0;
#X text 259 54 [width];
#X text 148 14 [room];
#X text 281 14 [damp];
#X obj 385 102 r reverb_room;
#X obj 385 123 r reverb_damp;
#X obj 385 144 r reverb_width;
#X obj 374 52 r reverb_mix;
#X obj 385 163 r reverb_freeze;
#X connect 0 0 17 0;
#X connect 0 1 18 0;
#X connect 1 0 0 0;
#X connect 2 0 1 0;
#X connect 3 0 10 0;
#X connect 4 0 5 0;
#X connect 5 0 0 0;
#X connect 6 0 0 0;
#X connect 7 0 6 0;
#X connect 8 0 0 0;
#X connect 9 0 8 0;
#X connect 10 0 0 0;
#X connect 11 0 0 0;
#X connect 12 0 0 0;
#X connect 13 0 11 0;
#X connect 14 0 12 0;
#X connect 15 0 16 0;
#X connect 16 0 21 0;
#X connect 19 0 0 0;
#X connect 20 0 0 1;
#X connect 21 0 14 0;
#X connect 22 0 13 0;
#X connect 27 0 3 0;
#X connect 28 0 2 0;
#X connect 29 0 9 0;
#X connect 30 0 31 0;
#X connect 31 0 22 0;
#X connect 35 0 28 0;
#X connect 36 0 27 0;
#X connect 37 0 29 0;
#X connect 38 0 22 0;
#X connect 39 0 4 0;
#X coords 0 -1 1 1 255 100 1 120 -10;
#X restore 416 330 pd reverb;
#N canvas 629 225 386 349 overdrive 0;
#X obj 111 107 overdrive~;
#X obj -20 -74 inlet~;
#X obj -20 206 outlet~;
#X floatatom 111 55 5 0 0 0 - - -;
#X obj -21 71 /~;
#X obj 111 76 - 1;
#X obj 149 153 *~;
#X obj 149 188 *~;
#X floatatom 164 55 5 0 0 0 - - -;
#X obj 77 -108 loadbang;
#X msg 77 -87 1;
#X obj 233 -71 r overdrive_drive;
#X obj 233 -51 * 64;
#X text 181 -33 [drive];
#X text 181 -11 [gain];
#X obj 114 -34 hsl 64 20 1 64 0 0 empty empty empty -2 -8 0 10 -232576
-1 -1 0 0;
#X obj 114 -9 hsl 64 15 0 2 0 0 empty empty empty -2 -8 0 10 -4032
-1 -1 2800 0;
#X connect 0 0 7 0;
#X connect 1 0 4 0;
#X connect 1 0 0 0;
#X connect 3 0 4 1;
#X connect 3 0 5 0;
#X connect 4 0 6 0;
#X connect 5 0 0 0;
#X connect 6 0 2 0;
#X connect 7 0 2 0;
#X connect 8 0 6 1;
#X connect 8 0 7 1;
#X connect 9 0 10 0;
#X connect 10 0 15 0;
#X connect 10 0 16 0;
#X connect 11 0 12 0;
#X connect 12 0 15 0;
#X connect 15 0 3 0;
#X connect 16 0 8 0;
#X coords 0 -1 1 1 122 70 1 106 -60;
#X restore 416 -80 pd overdrive;
#N canvas 0 3 1370 700 drum 0;
#X obj 208 53 tgl 15 0 empty empty empty 17 7 0 10 -66577 -262144 -1
1 1;
#X obj 225 53 tgl 15 0 empty empty empty 17 7 0 10 -66577 -262144 -1
0 1;
#X obj 242 53 tgl 15 0 empty empty empty 17 7 0 10 -66577 -262144 -1
0 1;
#X obj 259 53 tgl 15 0 empty empty empty 17 7 0 10 -66577 -262144 -1
0 1;
#X obj 281 53 tgl 15 0 empty empty empty 17 7 0 10 -66577 -262144 -1
1 1;
#X obj 298 53 tgl 15 0 empty empty empty 17 7 0 10 -66577 -262144 -1
0 1;
#X obj 315 53 tgl 15 0 empty empty empty 17 7 0 10 -66577 -262144 -1
1 1;
#X obj 332 53 tgl 15 0 empty empty empty 17 7 0 10 -66577 -262144 -1
0 1;
#X obj 208 73 tgl 15 0 empty empty empty 17 7 0 10 -99865 -262144 -1
1 1;
#X obj 225 73 tgl 15 0 empty empty empty 17 7 0 10 -99865 -262144 -1
0 1;
#X obj 242 73 tgl 15 0 empty empty empty 17 7 0 10 -99865 -262144 -1
1 1;
#X obj 208 94 tgl 15 0 empty empty empty 17 7 0 10 -128992 -262144
-1 1 1;
#X obj 225 94 tgl 15 0 empty empty empty 17 7 0 10 -128992 -262144
-1 0 1;
#X obj 242 94 tgl 15 0 empty empty empty 17 7 0 10 -128992 -262144
-1 0 1;
#X obj 259 94 tgl 15 0 empty empty empty 17 7 0 10 -128992 -262144
-1 0 1;
#X obj 281 94 tgl 15 0 empty empty empty 17 7 0 10 -128992 -262144
-1 1 1;
#X obj 298 94 tgl 15 0 empty empty empty 17 7 0 10 -128992 -262144
-1 0 1;
#X obj 315 94 tgl 15 0 empty empty empty 17 7 0 10 -128992 -262144
-1 0 1;
#X obj 332 94 tgl 15 0 empty empty empty 17 7 0 10 -128992 -262144
-1 0 1;
#X obj 354 163 tgl 15 0 empty empty empty 17 7 0 10 -262144 -1 -1 0
1;
#X obj 259 73 tgl 15 0 empty empty empty 17 7 0 10 -99865 -262144 -1
0 1;
#X obj 281 73 tgl 15 0 empty empty empty 17 7 0 10 -99865 -262144 -1
0 1;
#X obj 298 73 tgl 15 0 empty empty empty 17 7 0 10 -99865 -262144 -1
1 1;
#X obj 315 73 tgl 15 0 empty empty empty 17 7 0 10 -99865 -262144 -1
0 1;
#X obj 332 73 tgl 15 0 empty empty empty 17 7 0 10 -99865 -262144 -1
0 1;
#X obj 703 377 bng 15 250 50 0 empty empty empty 17 7 0 10 -262144
-1 -1;
#X obj 742 382 counter;
#X floatatom 742 405 8 0 0 0 - - -;
#X floatatom 742 454 5 0 0 0 - - -;
#X obj 761 553 bng 15 250 50 0 empty empty empty 17 7 0 10 -262144
-1 -1;
#X obj 780 553 bng 15 250 50 0 empty empty empty 17 7 0 10 -262144
-1 -1;
#X obj 801 553 bng 15 250 50 0 empty empty empty 17 7 0 10 -262144
-1 -1;
#X obj 823 553 bng 15 250 50 0 empty empty empty 17 7 0 10 -262144
-1 -1;
#X obj 846 553 bng 15 250 50 0 empty empty empty 17 7 0 10 -262144
-1 -1;
#X obj 868 553 bng 15 250 50 0 empty empty empty 17 7 0 10 -262144
-1 -1;
#X obj 892 553 bng 15 250 50 0 empty empty empty 17 7 0 10 -262144
-1 -1;
#X obj 751 340 bng 15 250 50 0 empty empty empty 17 7 0 10 -262144
-1 -1;
#X floatatom 1258 378 5 0 0 0 - - -;
#X text 370 115 reversed;
#X text 1309 377 ms;
#X obj 742 360 metro 500;
#X obj 1392 119 hsl 128 15 60 160 0 0 empty empty empty -2 -8 0 10
-228856 -1 -1 7493 0;
#X floatatom 1389 138 5 0 0 0 - - -;
#X msg 996 144 4;
#X msg 1066 161 8;
#X msg 1138 180 16;
#X msg 1213 197 32;
#X obj 977 129 bng 15 250 50 0 empty empty empty 17 7 0 10 -262144
-1 -1;
#X obj 1047 147 bng 15 250 50 0 empty empty empty 17 7 0 10 -262144
-1 -1;
#X obj 1117 165 bng 15 250 50 0 empty empty empty 17 7 0 10 -262144
-1 -1;
#X obj 1189 183 bng 15 250 50 0 empty empty empty 17 7 0 10 -262144
-1 -1;
#X floatatom 1146 333 5 0 0 0 - - -;
#X msg 1259 153 60;
#X obj 1258 220 * 4000;
#X floatatom 1258 244 5 0 0 0 - - -;
#X obj 1258 349 / 1;
#X obj 1259 196 / 1;
#X floatatom 1259 175 5 0 0 0 - - -;
#X obj 1361 134 bng 15 250 50 0 empty empty empty 17 7 0 10 -262144
-1 -1;
#X text 1523 118 bpm;
#X text 973 110 quant;
#X obj 1259 131 loadbang;
#X obj 1389 98 r tempo;
#X obj 354 118 bng 15 250 50 0 empty empty empty 17 7 0 10 -262144
-1 -1;
#X obj 206 114 bng 15 250 50 0 empty empty empty 17 7 0 10 -262144
-1 -1;
#X obj 206 132 bng 15 250 50 0 empty empty empty 17 7 0 10 -262144
-1 -1;
#X obj 206 150 bng 15 250 50 0 empty empty empty 17 7 0 10 -262144
-1 -1;
#X obj 206 168 bng 15 250 50 0 empty empty empty 17 7 0 10 -262144
-1 -1;
#X text 224 113 4;
#X text 224 130 8;
#X text 224 148 16;
#X text 224 166 32;
#X obj 742 553 bng 15 250 50 0 empty empty empty 17 7 0 10 -262144
-1 -1;
#X obj 1403 713 readsf~;
#X floatatom -1 259 5 0 0 0 - - -;
#X floatatom 32 259 5 0 0 0 - - -;
#X floatatom 66 259 5 0 0 0 - - -;
#X floatatom 101 259 5 0 0 0 - - -;
#X floatatom 141 259 5 0 0 0 - - -;
#X floatatom 175 259 5 0 0 0 - - -;
#X floatatom 209 259 5 0 0 0 - - -;
#X floatatom 243 259 5 0 0 0 - - -;
#X floatatom 1494 394 5 0 0 0 - - -;
#X obj 1494 415 * 2;
#X obj 1494 436 / 3;
#X obj 1494 363 bng 15 250 50 0 empty empty empty 17 7 0 10 -262144
-1 -1;
#X text 1594 361 dotted;
#X text 1513 362 triolet;
#X floatatom 1576 394 5 0 0 0 - - -;
#X obj 1576 436 * 1.5;
#X obj 1576 361 bng 15 250 50 0 empty empty empty 17 7 0 10 -262144
-1 -1;
#X obj 1426 363 bng 15 250 50 0 empty empty empty 17 7 0 10 -262144
-1 -1;
#X floatatom 1258 453 5 0 0 0 - - -;
#X floatatom 2 456 5 0 0 0 - - -;
#X floatatom 37 456 5 0 0 0 - - -;
#X floatatom 72 456 5 0 0 0 - - -;
#X floatatom 107 456 5 0 0 0 - - -;
#X floatatom 154 456 5 0 0 0 - - -;
#X floatatom 188 456 5 0 0 0 - - -;
#X floatatom 222 456 5 0 0 0 - - -;
#X floatatom 256 456 5 0 0 0 - - -;
#X obj -46 275 s dm1;
#X obj -41 472 s dm2;
#X obj 1333 495 r dm2;
#X obj 1333 573 sel 0 1;
#X msg 1352 605 start;
#X msg 1333 633 stop;
#X obj 1089 568 s dms;
#X obj 1403 493 r dms;
#X floatatom 1333 535 5 0 0 0 - - -;
#X obj 1404 791 outlet~;
#X obj 1221 714 readsf~;
#X obj 1151 574 sel 0 1;
#X msg 1170 606 start;
#X msg 1151 634 stop;
#X obj 1221 494 r dms;
#X floatatom 1151 536 5 0 0 0 - - -;
#X obj 1151 496 r dm1;
#X obj 742 572 s dms1;
#X obj 761 593 s dms2;
#X obj 780 614 s dms3;
#X obj 801 636 s dms4;
#X obj 823 657 s dms5;
#X obj 846 678 s dms6;
#X obj 868 699 s dms7;
#X obj 892 722 s dms8;
#X floatatom 3 645 5 0 0 0 - - -;
#X floatatom 38 645 5 0 0 0 - - -;
#X floatatom 73 645 5 0 0 0 - - -;
#X floatatom 108 645 5 0 0 0 - - -;
#X floatatom 145 645 5 0 0 0 - - -;
#X floatatom 179 645 5 0 0 0 - - -;
#X floatatom 213 645 5 0 0 0 - - -;
#X floatatom 247 645 5 0 0 0 - - -;
#X obj -40 661 s dm3;
#X obj 1580 711 readsf~;
#X obj 1510 571 sel 0 1;
#X msg 1529 603 start;
#X msg 1510 631 stop;
#X obj 1580 491 r dms;
#X floatatom 1510 533 5 0 0 0 - - -;
#X obj 1510 493 r dm3;
#X obj -212 16 r dms1;
#X obj -213 58 r dms2;
#X obj -213 98 r dms3;
#X obj -213 143 r dms4;
#X obj -213 183 r dms5;
#X obj -213 228 r dms6;
#X obj -213 269 r dms7;
#X obj -213 308 r dms8;
#X obj 217 187 bng 15 250 50 0 empty empty empty 17 7 0 10 -262144
-1 -1;
#X obj 217 204 bng 15 250 50 0 empty empty empty 17 7 0 10 -262144
-1 -1;
#X obj 217 221 bng 15 250 50 0 empty empty empty 17 7 0 10 -262144
-1 -1;
#X text 234 186 1;
#X text 235 204 tri;
#X text 235 220 dot;
#X obj 559 112 bng 15 250 50 0 empty empty empty 17 7 0 10 -262144
-1 -1;
#X obj 559 130 bng 15 250 50 0 empty empty empty 17 7 0 10 -262144
-1 -1;
#X obj 559 148 bng 15 250 50 0 empty empty empty 17 7 0 10 -262144
-1 -1;
#X obj 559 166 bng 15 250 50 0 empty empty empty 17 7 0 10 -262144
-1 -1;
#X obj 559 184 bng 15 250 50 0 empty empty empty 17 7 0 10 -262144
-1 -1;
#X obj 559 202 bng 15 250 50 0 empty empty empty 17 7 0 10 -262144
-1 -1;
#X obj 559 220 bng 15 250 50 0 empty empty empty 17 7 0 10 -262144
-1 -1;
#X msg 1221 615 open hhc.wav;
#X msg 1403 614 open sd.wav;
#X msg 1580 612 open bd.wav;
#X obj 513 53 hsl 56 15 0 1.5 0 0 empty empty empty -2 -8 0 10 -261682
-1 -1 2933 1;
#X obj 762 17 loadbang;
#X msg 762 36 0.8;
#X obj 513 73 hsl 56 15 0 1.5 0 0 empty empty empty -2 -8 0 10 -261682
-1 -1 2933 1;
#X obj 513 94 hsl 56 15 0 1.5 0 0 empty empty empty -2 -8 0 10 -261682
-1 -1 2933 1;
#X obj 1321 750 *~;
#X obj 1404 763 *~;
#X obj 1527 764 *~;
#X obj 799 67 s dmv1;
#X obj 847 88 s dmv2;
#X obj 896 109 s dmv3;
#X obj 1336 727 r dmv1;
#X obj 1419 740 r dmv2;
#X obj 1566 747 r dmv3;
#X text 535 127 7/8;
#X text 536 110 5/8;
#X obj 354 53 tgl 15 0 empty empty empty 17 7 0 10 -66577 -262144 -1
0 1;
#X obj 371 53 tgl 15 0 empty empty empty 17 7 0 10 -66577 -262144 -1
0 1;
#X obj 388 53 tgl 15 0 empty empty empty 17 7 0 10 -66577 -262144 -1
0 1;
#X obj 405 53 tgl 15 0 empty empty empty 17 7 0 10 -66577 -262144 -1
0 1;
#X obj 427 53 tgl 15 0 empty empty empty 17 7 0 10 -66577 -262144 -1
0 1;
#X obj 444 53 tgl 15 0 empty empty empty 17 7 0 10 -66577 -262144 -1
0 1;
#X obj 461 53 tgl 15 0 empty empty empty 17 7 0 10 -66577 -262144 -1
0 1;
#X obj 478 53 tgl 15 0 empty empty empty 17 7 0 10 -66577 -262144 -1
0 1;
#X obj 354 73 tgl 15 0 empty empty empty 17 7 0 10 -99865 -262144 -1
0 1;
#X obj 371 73 tgl 15 0 empty empty empty 17 7 0 10 -99865 -262144 -1
0 1;
#X obj 388 73 tgl 15 0 empty empty empty 17 7 0 10 -99865 -262144 -1
0 1;
#X obj 354 94 tgl 15 0 empty empty empty 17 7 0 10 -128992 -262144
-1 0 1;
#X obj 371 94 tgl 15 0 empty empty empty 17 7 0 10 -128992 -262144
-1 0 1;
#X obj 388 94 tgl 15 0 empty empty empty 17 7 0 10 -128992 -262144
-1 0 1;
#X obj 405 94 tgl 15 0 empty empty empty 17 7 0 10 -128992 -262144
-1 0 1;
#X obj 427 94 tgl 15 0 empty empty empty 17 7 0 10 -128992 -262144
-1 0 1;
#X obj 444 94 tgl 15 0 empty empty empty 17 7 0 10 -128992 -262144
-1 0 1;
#X obj 461 94 tgl 15 0 empty empty empty 17 7 0 10 -128992 -262144
-1 0 1;
#X obj 478 94 tgl 15 0 empty empty empty 17 7 0 10 -128992 -262144
-1 0 1;
#X obj 405 73 tgl 15 0 empty empty empty 17 7 0 10 -99865 -262144 -1
0 1;
#X obj 427 73 tgl 15 0 empty empty empty 17 7 0 10 -99865 -262144 -1
0 1;
#X obj 444 73 tgl 15 0 empty empty empty 17 7 0 10 -99865 -262144 -1
0 1;
#X obj 461 73 tgl 15 0 empty empty empty 17 7 0 10 -99865 -228856 -1
0 1;
#X obj 478 73 tgl 15 0 empty empty empty 17 7 0 10 -99865 -262144 -1
0 1;
#X obj 742 478 sel 0 1 2 3 4 5 6 7 8 9 10 11 12 13 14 15;
#X obj 935 553 bng 15 250 50 0 empty empty empty 17 7 0 10 -262144
-1 -1;
#X obj 954 553 bng 15 250 50 0 empty empty empty 17 7 0 10 -262144
-1 -1;
#X obj 975 553 bng 15 250 50 0 empty empty empty 17 7 0 10 -262144
-1 -1;
#X obj 997 553 bng 15 250 50 0 empty empty empty 17 7 0 10 -262144
-1 -1;
#X obj 1020 553 bng 15 250 50 0 empty empty empty 17 7 0 10 -262144
-1 -1;
#X obj 1042 553 bng 15 250 50 0 empty empty empty 17 7 0 10 -262144
-1 -1;
#X obj 1066 553 bng 15 250 50 0 empty empty empty 17 7 0 10 -262144
-1 -1;
#X obj 916 553 bng 15 250 50 0 empty empty empty 17 7 0 10 -262144
-1 -1;
#X obj 916 572 s dms9;
#X obj 935 593 s dms10;
#X obj 954 614 s dms11;
#X obj 975 636 s dms12;
#X obj 997 657 s dms13;
#X obj 1020 678 s dms14;
#X obj 1042 699 s dms15;
#X obj 1066 720 s dms16;
#X floatatom 283 259 5 0 0 0 - - -;
#X floatatom 316 259 5 0 0 0 - - -;
#X floatatom 350 259 5 0 0 0 - - -;
#X floatatom 385 259 5 0 0 0 - - -;
#X floatatom 425 259 5 0 0 0 - - -;
#X floatatom 459 259 5 0 0 0 - - -;
#X floatatom 493 259 5 0 0 0 - - -;
#X floatatom 527 259 5 0 0 0 - - -;
#X obj -213 354 r dms9;
#X obj -214 396 r dms10;
#X obj -214 436 r dms11;
#X obj -214 481 r dms12;
#X obj -214 566 r dms14;
#X obj -214 607 r dms15;
#X obj -214 646 r dms16;
#X floatatom 292 456 5 0 0 0 - - -;
#X floatatom 327 456 5 0 0 0 - - -;
#X floatatom 362 456 5 0 0 0 - - -;
#X floatatom 397 456 5 0 0 0 - - -;
#X floatatom 432 456 5 0 0 0 - - -;
#X floatatom 466 456 5 0 0 0 - - -;
#X floatatom 500 456 5 0 0 0 - - -;
#X floatatom 534 456 5 0 0 0 - - -;
#X floatatom 284 645 5 0 0 0 - - -;
#X floatatom 319 645 5 0 0 0 - - -;
#X floatatom 354 645 5 0 0 0 - - -;
#X floatatom 389 645 5 0 0 0 - - -;
#X floatatom 424 645 5 0 0 0 - - -;
#X floatatom 458 645 5 0 0 0 - - -;
#X floatatom 492 645 5 0 0 0 - - -;
#X floatatom 526 645 5 0 0 0 - - -;
#X obj 208 33 bng 15 100 50 0 empty empty empty 17 7 0 10 -262144 -1
-1;
#X obj 225 33 bng 15 100 50 0 empty empty empty 17 7 0 10 -262144 -1
-1;
#X obj 242 33 bng 15 100 50 0 empty empty empty 17 7 0 10 -262144 -1
-1;
#X obj 259 33 bng 15 100 50 0 empty empty empty 17 7 0 10 -262144 -1
-1;
#X obj 281 33 bng 15 100 50 0 empty empty empty 17 7 0 10 -262144 -1
-1;
#X obj 298 33 bng 15 100 50 0 empty empty empty 17 7 0 10 -262144 -1
-1;
#X obj 315 33 bng 15 100 50 0 empty empty empty 17 7 0 10 -262144 -1
-1;
#X obj 332 33 bng 15 100 50 0 empty empty empty 17 7 0 10 -262144 -1
-1;
#X obj 354 33 bng 15 100 50 0 empty empty empty 17 7 0 10 -262144 -1
-1;
#X obj 371 33 bng 15 100 50 0 empty empty empty 17 7 0 10 -262144 -1
-1;
#X obj 388 33 bng 15 100 50 0 empty empty empty 17 7 0 10 -262144 -1
-1;
#X obj 405 33 bng 15 100 50 0 empty empty empty 17 7 0 10 -262144 -1
-1;
#X obj 426 33 bng 15 100 50 0 empty empty empty 17 7 0 10 -262144 -1
-1;
#X obj 443 33 bng 15 100 50 0 empty empty empty 17 7 0 10 -262144 -1
-1;
#X obj 460 33 bng 15 100 50 0 empty empty empty 17 7 0 10 -262144 -1
-1;
#X obj 478 33 bng 15 100 50 0 empty empty empty 17 7 0 10 -262144 -1
-1;
#X obj -214 521 r dms13;
#X msg 632 355 5;
#X msg 632 374 7;
#X msg 632 394 9;
#X msg 632 414 11;
#X msg 632 434 15;
#X msg 632 454 6;
#X text 535 145 9/8;
#X text 528 165 11/8;
#X text 523 183 15/16;
#X text 534 199 6/8;
#X text 536 217 4/4;
#X floatatom 690 411 5 0 0 0 - - -;
#X text 373 203 clear;
#X obj 354 205 bng 15 250 50 0 empty empty empty 17 7 0 10 -262144
-1 -1;
#X msg 897 220 0;
#X obj 742 427 % 16;
#X obj 1047 21 loadbang;
#X msg 632 474 16;
#X obj 760 313 bng 15 250 50 0 empty empty empty 17 7 0 10 -262144
-1 -1;
#X text 776 311 reset;
#X text 371 160 play/ stop;
#X obj 726 278 sel 0 1;
#X obj 726 298 bng 15 250 50 0 empty empty empty 17 7 0 10 -262144
-1 -1;
#X connect 0 0 74 0;
#X connect 1 0 75 0;
#X connect 2 0 76 0;
#X connect 3 0 77 0;
#X connect 4 0 78 0;
#X connect 5 0 79 0;
#X connect 6 0 80 0;
#X connect 7 0 81 0;
#X connect 8 0 93 0;
#X connect 9 0 94 0;
#X connect 10 0 95 0;
#X connect 11 0 126 0;
#X connect 12 0 127 0;
#X connect 13 0 128 0;
#X connect 14 0 129 0;
#X connect 15 0 130 0;
#X connect 16 0 131 0;
#X connect 17 0 132 0;
#X connect 18 0 133 0;
#X connect 19 0 40 0;
#X connect 19 0 292 0;
#X connect 20 0 96 0;
#X connect 21 0 97 0;
#X connect 22 0 98 0;
#X connect 23 0 99 0;
#X connect 24 0 100 0;
#X connect 26 0 27 0;
#X connect 27 0 286 0;
#X connect 28 0 206 0;
#X connect 29 0 107 0;
#X connect 29 0 119 0;
#X connect 30 0 107 0;
#X connect 30 0 120 0;
#X connect 31 0 107 0;
#X connect 31 0 121 0;
#X connect 32 0 107 0;
#X connect 32 0 122 0;
#X connect 33 0 107 0;
#X connect 33 0 123 0;
#X connect 34 0 107 0;
#X connect 34 0 124 0;
#X connect 35 0 107 0;
#X connect 35 0 125 0;
#X connect 36 0 26 1;
#X connect 37 0 82 0;
#X connect 37 0 88 0;
#X connect 37 0 92 0;
#X connect 40 0 25 0;
#X connect 40 0 26 0;
#X connect 41 0 42 0;
#X connect 41 0 58 0;
#X connect 42 0 56 1;
#X connect 43 0 51 0;
#X connect 44 0 51 0;
#X connect 45 0 51 0;
#X connect 46 0 51 0;
#X connect 47 0 43 0;
#X connect 47 0 55 0;
#X connect 48 0 44 0;
#X connect 48 0 55 0;
#X connect 49 0 45 0;
#X connect 49 0 55 0;
#X connect 50 0 46 0;
#X connect 50 0 55 0;
#X connect 51 0 55 1;
#X connect 52 0 57 0;
#X connect 53 0 54 0;
#X connect 54 0 55 0;
#X connect 55 0 37 0;
#X connect 56 0 53 0;
#X connect 57 0 56 0;
#X connect 58 0 56 0;
#X connect 58 0 53 0;
#X connect 61 0 52 0;
#X connect 62 0 41 0;
#X connect 63 0 36 0;
#X connect 64 0 47 0;
#X connect 65 0 48 0;
#X connect 66 0 49 0;
#X connect 67 0 50 0;
#X connect 72 0 107 0;
#X connect 72 0 118 0;
#X connect 73 0 172 0;
#X connect 74 0 101 0;
#X connect 75 0 101 0;
#X connect 76 0 101 0;
#X connect 77 0 101 0;
#X connect 78 0 101 0;
#X connect 79 0 101 0;
#X connect 80 0 101 0;
#X connect 81 0 101 0;
#X connect 82 0 83 0;
#X connect 83 0 84 0;
#X connect 84 0 92 0;
#X connect 85 0 82 0;
#X connect 88 0 89 0;
#X connect 89 0 92 0;
#X connect 90 0 88 0;
#X connect 91 0 37 0;
#X connect 92 0 40 1;
#X connect 93 0 102 0;
#X connect 94 0 102 0;
#X connect 95 0 102 0;
#X connect 96 0 102 0;
#X connect 97 0 102 0;
#X connect 98 0 102 0;
#X connect 99 0 102 0;
#X connect 100 0 102 0;
#X connect 103 0 109 0;
#X connect 104 0 106 0;
#X connect 104 1 105 0;
#X connect 105 0 73 0;
#X connect 106 0 73 0;
#X connect 108 0 164 0;
#X connect 109 0 104 0;
#X connect 111 0 171 0;
#X connect 112 0 114 0;
#X connect 112 1 113 0;
#X connect 113 0 111 0;
#X connect 114 0 111 0;
#X connect 115 0 163 0;
#X connect 116 0 112 0;
#X connect 117 0 116 0;
#X connect 126 0 134 0;
#X connect 127 0 134 0;
#X connect 128 0 134 0;
#X connect 129 0 134 0;
#X connect 130 0 134 0;
#X connect 131 0 134 0;
#X connect 132 0 134 0;
#X connect 133 0 134 0;
#X connect 135 0 173 0;
#X connect 136 0 138 0;
#X connect 136 1 137 0;
#X connect 137 0 135 0;
#X connect 138 0 135 0;
#X connect 139 0 165 0;
#X connect 140 0 136 0;
#X connect 141 0 140 0;
#X connect 142 0 74 0;
#X connect 142 0 93 0;
#X connect 142 0 126 0;
#X connect 142 0 254 0;
#X connect 143 0 75 0;
#X connect 143 0 94 0;
#X connect 143 0 127 0;
#X connect 143 0 255 0;
#X connect 144 0 76 0;
#X connect 144 0 95 0;
#X connect 144 0 128 0;
#X connect 144 0 256 0;
#X connect 145 0 77 0;
#X connect 145 0 96 0;
#X connect 145 0 129 0;
#X connect 145 0 257 0;
#X connect 146 0 78 0;
#X connect 146 0 97 0;
#X connect 146 0 130 0;
#X connect 146 0 258 0;
#X connect 147 0 79 0;
#X connect 147 0 98 0;
#X connect 147 0 131 0;
#X connect 147 0 259 0;
#X connect 148 0 80 0;
#X connect 148 0 99 0;
#X connect 148 0 132 0;
#X connect 148 0 260 0;
#X connect 149 0 81 0;
#X connect 149 0 100 0;
#X connect 149 0 133 0;
#X connect 149 0 261 0;
#X connect 150 0 91 0;
#X connect 151 0 85 0;
#X connect 152 0 90 0;
#X connect 156 0 271 0;
#X connect 157 0 272 0;
#X connect 158 0 273 0;
#X connect 159 0 274 0;
#X connect 160 0 275 0;
#X connect 161 0 276 0;
#X connect 162 0 288 0;
#X connect 163 0 111 0;
#X connect 164 0 73 0;
#X connect 165 0 135 0;
#X connect 166 0 174 0;
#X connect 167 0 168 0;
#X connect 168 0 166 0;
#X connect 168 0 169 0;
#X connect 168 0 170 0;
#X connect 169 0 175 0;
#X connect 170 0 176 0;
#X connect 171 0 110 0;
#X connect 172 0 110 0;
#X connect 173 0 110 0;
#X connect 177 0 171 1;
#X connect 178 0 172 1;
#X connect 179 0 173 1;
#X connect 182 0 223 0;
#X connect 183 0 224 0;
#X connect 184 0 225 0;
#X connect 185 0 226 0;
#X connect 186 0 227 0;
#X connect 187 0 228 0;
#X connect 188 0 229 0;
#X connect 189 0 230 0;
#X connect 190 0 238 0;
#X connect 191 0 239 0;
#X connect 192 0 240 0;
#X connect 193 0 246 0;
#X connect 194 0 247 0;
#X connect 195 0 248 0;
#X connect 196 0 249 0;
#X connect 197 0 250 0;
#X connect 198 0 251 0;
#X connect 199 0 252 0;
#X connect 200 0 253 0;
#X connect 201 0 241 0;
#X connect 202 0 242 0;
#X connect 203 0 243 0;
#X connect 204 0 244 0;
#X connect 205 0 245 0;
#X connect 206 0 72 0;
#X connect 206 1 29 0;
#X connect 206 2 30 0;
#X connect 206 3 31 0;
#X connect 206 4 32 0;
#X connect 206 5 33 0;
#X connect 206 6 34 0;
#X connect 206 7 35 0;
#X connect 206 8 214 0;
#X connect 206 9 207 0;
#X connect 206 10 208 0;
#X connect 206 11 209 0;
#X connect 206 12 210 0;
#X connect 206 13 211 0;
#X connect 206 14 212 0;
#X connect 206 15 213 0;
#X connect 207 0 107 0;
#X connect 207 0 216 0;
#X connect 208 0 107 0;
#X connect 208 0 217 0;
#X connect 209 0 107 0;
#X connect 209 0 218 0;
#X connect 210 0 107 0;
#X connect 210 0 219 0;
#X connect 211 0 107 0;
#X connect 211 0 220 0;
#X connect 212 0 107 0;
#X connect 212 0 221 0;
#X connect 213 0 107 0;
#X connect 213 0 222 0;
#X connect 214 0 107 0;
#X connect 214 0 215 0;
#X connect 223 0 101 0;
#X connect 224 0 101 0;
#X connect 225 0 101 0;
#X connect 226 0 101 0;
#X connect 227 0 101 0;
#X connect 228 0 101 0;
#X connect 229 0 101 0;
#X connect 230 0 101 0;
#X connect 231 0 223 0;
#X connect 231 0 238 0;
#X connect 231 0 246 0;
#X connect 231 0 262 0;
#X connect 232 0 224 0;
#X connect 232 0 239 0;
#X connect 232 0 247 0;
#X connect 232 0 263 0;
#X connect 233 0 225 0;
#X connect 233 0 240 0;
#X connect 233 0 248 0;
#X connect 233 0 264 0;
#X connect 234 0 226 0;
#X connect 234 0 241 0;
#X connect 234 0 249 0;
#X connect 234 0 265 0;
#X connect 235 0 228 0;
#X connect 235 0 243 0;
#X connect 235 0 251 0;
#X connect 235 0 267 0;
#X connect 236 0 229 0;
#X connect 236 0 244 0;
#X connect 236 0 252 0;
#X connect 236 0 268 0;
#X connect 237 0 230 0;
#X connect 237 0 245 0;
#X connect 237 0 253 0;
#X connect 237 0 269 0;
#X connect 238 0 102 0;
#X connect 239 0 102 0;
#X connect 240 0 102 0;
#X connect 241 0 102 0;
#X connect 242 0 102 0;
#X connect 243 0 102 0;
#X connect 244 0 102 0;
#X connect 245 0 102 0;
#X connect 246 0 134 0;
#X connect 247 0 134 0;
#X connect 248 0 134 0;
#X connect 249 0 134 0;
#X connect 250 0 134 0;
#X connect 251 0 134 0;
#X connect 252 0 134 0;
#X connect 253 0 134 0;
#X connect 270 0 227 0;
#X connect 270 0 242 0;
#X connect 270 0 250 0;
#X connect 270 0 266 0;
#X connect 271 0 282 0;
#X connect 272 0 282 0;
#X connect 273 0 282 0;
#X connect 274 0 282 0;
#X connect 275 0 282 0;
#X connect 276 0 282 0;
#X connect 282 0 286 1;
#X connect 284 0 285 0;
#X connect 285 0 0 0;
#X connect 285 0 1 0;
#X connect 285 0 2 0;
#X connect 285 0 3 0;
#X connect 285 0 4 0;
#X connect 285 0 5 0;
#X connect 285 0 6 0;
#X connect 285 0 7 0;
#X connect 285 0 182 0;
#X connect 285 0 183 0;
#X connect 285 0 184 0;
#X connect 285 0 185 0;
#X connect 285 0 186 0;
#X connect 285 0 187 0;
#X connect 285 0 188 0;
#X connect 285 0 189 0;
#X connect 285 0 8 0;
#X connect 285 0 9 0;
#X connect 285 0 10 0;
#X connect 285 0 20 0;
#X connect 285 0 21 0;
#X connect 285 0 22 0;
#X connect 285 0 23 0;
#X connect 285 0 24 0;
#X connect 285 0 190 0;
#X connect 285 0 191 0;
#X connect 285 0 192 0;
#X connect 285 0 201 0;
#X connect 285 0 202 0;
#X connect 285 0 203 0;
#X connect 285 0 204 0;
#X connect 285 0 205 0;
#X connect 285 0 11 0;
#X connect 285 0 12 0;
#X connect 285 0 13 0;
#X connect 285 0 14 0;
#X connect 285 0 15 0;
#X connect 285 0 16 0;
#X connect 285 0 17 0;
#X connect 285 0 18 0;
#X connect 285 0 193 0;
#X connect 285 0 194 0;
#X connect 285 0 195 0;
#X connect 285 0 196 0;
#X connect 285 0 197 0;
#X connect 285 0 198 0;
#X connect 285 0 199 0;
#X connect 285 0 200 0;
#X connect 285 0 19 0;
#X connect 286 0 28 0;
#X connect 287 0 48 0;
#X connect 288 0 282 0;
#X connect 289 0 26 2;
#X connect 292 0 293 0;
#X connect 293 0 289 0;
#X coords 0 -1 1 1 380 230 1 200 10;
#X restore 884 -382 pd drum machine;
#N canvas 491 200 450 300 dsp 0;
#X obj 108 120 tgl 25 0 empty empty empty 17 7 0 10 -262144 -1 -1 1
1;
#X msg 108 166 \; pd dsp \$1;
#X text 104 103 [dsp];
#X connect 0 0 1 0;
#X coords 0 -1 1 1 42 54 2 100 100;
#X restore -15 -120 pd dsp;
#N canvas 673 189 450 393 tempo 0;
#X floatatom 239 13 5 0 0 0 - - -;
#X obj 103 92 s tempo;
#X obj 103 -38 loadbang;
#X msg 103 -18 120;
#X obj 103 48 int;
#X obj 106 9 hsl 128 25 60 155 0 0 empty empty empty -2 -8 0 10 -204786
-1 -1 8021 0;
#X connect 0 0 1 0;
#X connect 2 0 3 0;
#X connect 3 0 5 0;
#X connect 4 0 0 0;
#X connect 5 0 4 0;
#X coords 0 -1 1 1 175 42 2 100 0;
#X restore 32 -380 pd tempo;
#N canvas 302 98 335 514 dac~ 0;
#X obj -219 161 *~;
#X obj -192 161 *~;
#X obj -94 -94 vsl 30 142 0 4 0 0 empty empty empty 0 -9 0 10 -262130
-1 -1 3525 1;
#X obj -218 -111 r~ dac_L;
#X obj -193 -87 r~ dac_R;
#X obj -1 -134 loadbang;
#X msg -1 -113 1;
#X obj -182 198 dac~;
#X floatatom -94 59 5 0 0 0 - - -;
#X msg -94 79 \$1 100;
#X obj -94 101 line;
#X connect 0 0 7 0;
#X connect 1 0 7 1;
#X connect 2 0 8 0;
#X connect 3 0 0 0;
#X connect 4 0 1 0;
#X connect 5 0 6 0;
#X connect 6 0 2 0;
#X connect 8 0 9 0;
#X connect 9 0 10 0;
#X connect 10 0 1 1;
#X connect 10 0 0 1;
#X coords 0 -1 1 1 42 155 2 -100 -100;
#X restore -14 -380 pd dac~;
#N canvas 0 0 1366 726 delay 0;
#X floatatom 894 153 5 0 0 0 - - -;
#X text 928 152 ms;
#X obj 951 -51 hsl 128 15 60 140 0 0 empty empty empty -2 -8 0 10 -228856
-1 -1 9366 0;
#X floatatom 948 -24 5 0 0 0 - - -;
#X msg 957 57 4;
#X msg 999 57 8;
#X msg 1038 57 16;
#X msg 1081 58 32;
#X obj 957 29 bng 15 250 50 0 empty empty empty 17 7 0 10 -262144 -1
-1;
#X obj 999 29 bng 15 250 50 0 empty empty empty 17 7 0 10 -262144 -1
-1;
#X obj 1038 27 bng 15 250 50 0 empty empty empty 17 7 0 10 -262144
-1 -1;
#X obj 1081 31 bng 15 250 50 0 empty empty empty 17 7 0 10 -262144
-1 -1;
#X floatatom 957 127 5 0 0 0 - - -;
#X msg 810 -30 60;
#X obj 809 70 * 4000;
#X floatatom 809 94 5 0 0 0 - - -;
#X obj 894 110 / 1;
#X obj 810 46 / 1;
#X floatatom 810 -10 5 0 0 0 - - -;
#X obj 920 -36 bng 15 250 50 0 empty empty empty 17 7 0 10 -262144
-1 -1;
#X text 1082 -52 bpm;
#X text 1011 3 quant;
#X obj 810 -50 loadbang;
#X obj 894 249 * 2;
#X obj 121 53 knob 40 40 0 1 0 0 empty empty empty 0 -8 0 8 -262144
-1 -1 2611 1;
#X floatatom 35 230 5 0 0 0 - - -;
#X obj 20 343 *~;
#X obj 117 343 *~;
#X floatatom 1126 169 5 0 0 0 - - -;
#X obj 1126 190 * 2;
#X obj 1126 211 / 3;
#X floatatom 894 228 5 0 0 0 - - -;
#X floatatom 894 178 5 0 0 0 - - -;
#X obj 1071 163 bng 15 250 50 0 empty empty empty 17 7 0 10 -262144
-1 -1;
#X obj 1126 138 bng 15 250 50 0 empty empty empty 17 7 0 10 -262144
-1 -1;
#X msg 1221 32 1;
#X obj 1221 8 loadbang;
#X text 1066 148 1;
#X text 1226 136 dotted;
#X text 1145 137 triolet;
#X floatatom 1208 169 5 0 0 0 - - -;
#X obj 1208 211 * 1.5;
#X obj 1208 136 bng 15 250 50 0 empty empty empty 17 7 0 10 -262144
-1 -1;
#X obj 181 57 knob 32 32 1 0 0 0 empty empty empty 0 -8 0 8 -262144
-1 -1 73 1;
#X floatatom 227 393 5 0 0 0 - - -;
#X obj 268 409 *~;
#X obj 305 409 *~;
#X obj 894 269 * 3;
#X obj 894 291 * 4;
#X obj -11 -103 delwrite~ delayLeft_1 9000;
#X obj -11 -83 delwrite~ delayRight_1 9000;
#X obj -11 -63 delwrite~ delayLeft_2 9000;
#X obj -12 -43 delwrite~ delayRight_2 9000;
#X obj 19 317 vd~ delayLeft_1;
#X obj 117 317 vd~ delayRight_1;
#X obj 341 344 vd~ delayLeft_2;
#X obj 341 371 vd~ delayRight_2;
#X obj -58 -120 inlet~;
#X obj -56 573 outlet~;
#X obj 19 573 outlet~;
#X obj 948 -90 r tempo;
#X obj 27 53 bng 15 250 50 0 empty empty empty 17 7 0 10 -262144 -1
-1;
#X obj 27 71 bng 15 250 50 0 empty empty empty 17 7 0 10 -262144 -1
-1;
#X obj 27 89 bng 15 250 50 0 empty empty empty 17 7 0 10 -262144 -1
-1;
#X obj 27 106 bng 15 250 50 0 empty empty empty 17 7 0 10 -262144 -1
-1;
#X text 44 52 4;
#X text 44 70 8;
#X text 43 88 16;
#X text 44 105 32;
#X obj 70 52 bng 15 250 50 0 empty empty empty 17 7 0 10 -262144 -1
-1;
#X text 87 53 1;
#X obj 70 69 bng 15 250 50 0 empty empty empty 17 7 0 10 -262144 -1
-1;
#X obj 70 86 bng 15 250 50 0 empty empty empty 17 7 0 10 -262144 -1
-1;
#X text 86 70 tri;
#X text 87 87 dot;
#X obj 1219 -74 loadbang;
#X text 175 96 dry/wet;
#X obj 203 122 tgl 15 0 empty empty empty 17 7 0 10 -262144 -1 -1 1
1;
#X obj 894 311 * 5;
#X obj 894 332 * 6;
#X obj 188 -55 delwrite~ delayLeft_3 9000;
#X obj 188 -36 delwrite~ delayRight_3 9000;
#X obj 188 -16 delwrite~ delayLeft_4 9000;
#X obj 188 4 delwrite~ delayRight_4 9000;
#X obj 536 387 vd~ delayLeft_3;
#X obj 469 442 *~;
#X obj 506 442 *~;
#X obj 380 -102 delwrite~ delayLeft_5 9000;
#X obj 380 -83 delwrite~ delayRight_5 9000;
#X obj 380 -63 delwrite~ delayLeft_6 9000;
#X obj 380 -43 delwrite~ delayRight_6 9000;
#X floatatom 428 426 5 0 0 0 - - -;
#X obj 894 353 * 7;
#X obj 894 374 * 8;
#X obj 658 458 *~;
#X obj 695 458 *~;
#X floatatom 617 442 5 0 0 0 - - -;
#X obj 725 403 vd~ delayLeft_4;
#X obj 227 246 / 2;
#X obj 428 246 / 4;
#X obj 617 246 / 6;
#X obj 708 246 / 8;
#X obj 536 410 vd~ delayRight_3;
#X obj 725 426 vd~ delayRight_4;
#X obj 894 394 * 9;
#X obj 894 417 * 10;
#X obj 749 506 *~;
#X obj 786 506 *~;
#X floatatom 708 479 5 0 0 0 - - -;
#X obj 816 468 vd~ delayLeft_5;
#X obj 815 490 vd~ delayRight_5;
#X obj 990 287 * 11;
#X obj 990 311 * 12;
#X obj 1053 304 vd~ delayLeft_6;
#X obj 1053 530 *~;
#X obj 1085 531 *~;
#X floatatom 1068 408 5 0 0 0 - - -;
#X obj 94 244 sig~;
#X obj 116 266 sig~;
#X obj 1085 328 vd~ delayRight_6;
#X obj -42 216 sel 0 1;
#X msg -42 249 1;
#X obj -57 420 *~;
#X text 162 121 on/off;
#X obj -39 498 *~;
#X msg -24 272 0;
#X obj 19 535 *~;
#X msg 19 272 1;
#X obj -42 139 loadbang;
#X obj -57 45 *~;
#X floatatom -23 45 5 0 0 0 - - -;
#X floatatom 361 146 5 0 0 0 - - -;
#X obj 361 165 - 1;
#X obj 361 185 abs;
#X floatatom 361 204 5 0 0 0 - - -;
#X obj -38 534 *~;
#X obj 19 554 *~;
#X obj -42 1 loadbang;
#X msg -42 22 1;
#X obj 1068 246 / 12;
#X text 109 96 [feedback];
#X obj 372 110 r delay_feedback;
#X obj 526 96 r delay_mix;
#X obj 526 115 expr abs($f1 - 1);
#X msg -35 177 1;
#X connect 0 0 28 0;
#X connect 0 0 32 0;
#X connect 0 0 40 0;
#X connect 2 0 3 0;
#X connect 2 0 19 0;
#X connect 3 0 17 1;
#X connect 4 0 12 0;
#X connect 5 0 12 0;
#X connect 6 0 12 0;
#X connect 7 0 12 0;
#X connect 8 0 4 0;
#X connect 8 0 16 0;
#X connect 9 0 5 0;
#X connect 9 0 16 0;
#X connect 10 0 6 0;
#X connect 10 0 16 0;
#X connect 11 0 7 0;
#X connect 11 0 16 0;
#X connect 12 0 16 1;
#X connect 13 0 18 0;
#X connect 14 0 15 0;
#X connect 15 0 16 0;
#X connect 16 0 0 0;
#X connect 17 0 14 0;
#X connect 18 0 17 0;
#X connect 19 0 17 0;
#X connect 19 0 14 0;
#X connect 22 0 13 0;
#X connect 23 0 118 0;
#X connect 24 0 25 0;
#X connect 25 0 26 1;
#X connect 25 0 27 1;
#X connect 25 0 98 0;
#X connect 25 0 99 0;
#X connect 25 0 100 0;
#X connect 25 0 101 0;
#X connect 25 0 139 0;
#X connect 26 0 124 0;
#X connect 27 0 126 0;
#X connect 28 0 29 0;
#X connect 29 0 30 0;
#X connect 30 0 31 0;
#X connect 31 0 23 0;
#X connect 31 0 47 0;
#X connect 31 0 48 0;
#X connect 31 0 78 0;
#X connect 31 0 79 0;
#X connect 31 0 92 0;
#X connect 31 0 93 0;
#X connect 31 0 104 0;
#X connect 31 0 105 0;
#X connect 31 0 111 0;
#X connect 31 0 112 0;
#X connect 31 0 117 0;
#X connect 32 0 31 0;
#X connect 33 0 32 0;
#X connect 34 0 28 0;
#X connect 35 0 33 0;
#X connect 36 0 35 0;
#X connect 40 0 41 0;
#X connect 41 0 31 0;
#X connect 42 0 40 0;
#X connect 43 0 130 0;
#X connect 43 0 131 0;
#X connect 44 0 45 1;
#X connect 44 0 46 1;
#X connect 45 0 124 0;
#X connect 46 0 126 0;
#X connect 47 0 55 0;
#X connect 48 0 56 0;
#X connect 53 0 26 0;
#X connect 54 0 27 0;
#X connect 55 0 45 0;
#X connect 56 0 46 0;
#X connect 57 0 49 0;
#X connect 57 0 50 0;
#X connect 57 0 51 0;
#X connect 57 0 52 0;
#X connect 57 0 80 0;
#X connect 57 0 81 0;
#X connect 57 0 82 0;
#X connect 57 0 83 0;
#X connect 57 0 87 0;
#X connect 57 0 88 0;
#X connect 57 0 89 0;
#X connect 57 0 90 0;
#X connect 57 0 129 0;
#X connect 60 0 2 0;
#X connect 61 0 8 0;
#X connect 62 0 9 0;
#X connect 63 0 10 0;
#X connect 64 0 11 0;
#X connect 69 0 33 0;
#X connect 71 0 34 0;
#X connect 72 0 42 0;
#X connect 75 0 9 0;
#X connect 77 0 120 0;
#X connect 78 0 84 0;
#X connect 79 0 102 0;
#X connect 84 0 85 0;
#X connect 85 0 124 0;
#X connect 86 0 126 0;
#X connect 91 0 85 1;
#X connect 91 0 86 1;
#X connect 92 0 97 0;
#X connect 93 0 103 0;
#X connect 94 0 124 0;
#X connect 95 0 126 0;
#X connect 96 0 94 1;
#X connect 96 0 95 1;
#X connect 97 0 94 0;
#X connect 98 0 44 0;
#X connect 99 0 91 0;
#X connect 100 0 96 0;
#X connect 101 0 108 0;
#X connect 102 0 86 0;
#X connect 103 0 95 0;
#X connect 104 0 109 0;
#X connect 105 0 110 0;
#X connect 106 0 124 0;
#X connect 107 0 126 0;
#X connect 108 0 106 1;
#X connect 108 0 107 1;
#X connect 109 0 106 0;
#X connect 110 0 107 0;
#X connect 111 0 113 0;
#X connect 112 0 119 0;
#X connect 113 0 114 0;
#X connect 114 0 124 0;
#X connect 115 0 126 0;
#X connect 116 0 114 1;
#X connect 116 0 115 1;
#X connect 117 0 53 0;
#X connect 118 0 54 0;
#X connect 119 0 115 0;
#X connect 120 0 121 0;
#X connect 120 0 125 0;
#X connect 120 1 127 0;
#X connect 121 0 122 1;
#X connect 122 0 58 0;
#X connect 122 0 59 0;
#X connect 124 0 135 0;
#X connect 125 0 124 1;
#X connect 125 0 126 1;
#X connect 126 0 136 0;
#X connect 127 0 124 1;
#X connect 127 0 126 1;
#X connect 128 0 121 0;
#X connect 128 0 144 0;
#X connect 129 0 122 0;
#X connect 130 0 129 1;
#X connect 131 0 132 0;
#X connect 132 0 133 0;
#X connect 133 0 134 0;
#X connect 134 0 135 1;
#X connect 134 0 136 1;
#X connect 135 0 58 0;
#X connect 136 0 59 0;
#X connect 137 0 138 0;
#X connect 138 0 129 1;
#X connect 139 0 116 0;
#X connect 141 0 24 0;
#X connect 142 0 143 0;
#X connect 143 0 43 0;
#X connect 144 0 77 0;
#X coords 0 -1 1 1 200 120 1 22 25;
#X restore 416 -4 pd delay;
#N canvas 662 85 574 539 gate 0;
#X obj -98 -20 env~;
#X obj 8 19 vsl 25 78 -100 12 0 0 empty empty empty 0 -9 0 10 -4032
-1 -1 95 1;
#X obj 46 19 vsl 25 78 -100 12 0 0 empty empty empty 0 -9 0 10 -228856
-1 -1 2106 1;
#X obj -98 0 - 100;
#X floatatom 46 104 5 0 0 0 - - -;
#X obj -67 159 expr if($f1 > $f2 \, 1 \, 0) \;;
#X floatatom -67 179 5 0 0 0 - - -;
#X obj -82 254 *~;
#X floatatom 8 104 5 0 0 0 - - -;
#X text 10 123 [in];
#X text 42 123 [gate];
#X obj -99 -51 inlet~;
#X obj -82 427 outlet~;
#X obj 138 -26 loadbang;
#X obj -67 226 line;
#X obj 93 72 knob 24 24 25 1000 0 0 empty empty empty 0 -8 0 8 -262144
-1 -1 500 1;
#X floatatom 93 104 5 0 0 0 - - -;
#X obj -67 203 pack;
#X text 83 123 [attack];
#X obj 116 4 tgl 15 0 empty empty empty 17 7 0 10 -262144 -1 -1 1 1
;
#X obj 168 55 sel 0 1;
#X obj 168 82 bng 15 250 50 0 empty empty empty 17 7 0 10 -262144 -1
-1;
#X obj 187 100 bng 15 250 50 0 empty empty empty 17 7 0 10 -262144
-1 -1;
#X obj -143 313 *~;
#X obj -83 313 *~;
#X msg 168 121 1;
#X msg 211 176 0;
#X msg 168 148 0;
#X msg 210 198 1;
#X text 76 3 on/off;
#X msg 138 0 -65;
#X connect 0 0 3 0;
#X connect 1 0 8 0;
#X connect 2 0 4 0;
#X connect 3 0 1 0;
#X connect 4 0 5 1;
#X connect 5 0 6 0;
#X connect 6 0 17 0;
#X connect 7 0 24 0;
#X connect 8 0 5 0;
#X connect 11 0 0 0;
#X connect 11 0 23 0;
#X connect 11 0 7 0;
#X connect 13 0 30 0;
#X connect 13 0 19 0;
#X connect 13 0 15 0;
#X connect 14 0 7 1;
#X connect 15 0 16 0;
#X connect 16 0 17 1;
#X connect 17 0 14 0;
#X connect 19 0 20 0;
#X connect 20 0 21 0;
#X connect 20 1 22 0;
#X connect 21 0 25 0;
#X connect 21 0 26 0;
#X connect 22 0 27 0;
#X connect 22 0 28 0;
#X connect 23 0 12 0;
#X connect 24 0 12 0;
#X connect 25 0 23 1;
#X connect 26 0 24 1;
#X connect 27 0 23 1;
#X connect 28 0 24 1;
#X connect 30 0 2 0;
#X coords 0 -1 1 1 135 140 1 0 0;
#X restore 416 -359 pd gate;
#N canvas 398 0 902 700 controllers 0;
#X msg 257 -61 devices;
#X msg 360 -61 open 3;
#X obj 169 53 print;
#X msg 315 -61 close;
#X obj 426 -116 bng 35 250 50 0 empty empty empty 17 7 0 10 -262144
-33289 -33289;
#X obj 376 -26 bng 15 250 50 0 empty empty empty 17 7 0 10 -262144
-1 -1;
#X obj 380 -117 bng 20 250 50 0 empty empty empty 17 7 0 10 -262144
-1 -1;
#X obj 360 36 comport 9600;
#X msg 376 -5 1;
#X obj 360 61 repack 2;
#X obj 360 84 unpack f f;
#X floatatom 360 107 5 0 0 0 - - -;
#X floatatom 417 108 5 0 0 0 - - -;
#X obj 104 143 hradio 22 1 0 10 empty empty empty 0 -8 0 10 -262144
-1 -1 6;
#X obj 538 221 bng 15 250 50 0 empty empty empty 17 7 0 10 -262144
-1 -1;
#X obj 556 221 bng 15 250 50 0 empty empty empty 17 7 0 10 -262144
-1 -1;
#X obj 520 221 bng 15 250 50 0 empty empty empty 17 7 0 10 -262144
-1 -1;
#X obj 610 221 bng 15 250 50 0 empty empty empty 17 7 0 10 -262144
-1 -1;
#X obj 628 221 bng 15 250 50 0 empty empty empty 17 7 0 10 -262144
-1 -1;
#X obj 574 221 bng 15 250 50 0 empty empty empty 17 7 0 10 -262144
-1 -1;
#X obj 592 221 bng 15 250 50 0 empty empty empty 17 7 0 10 -262144
-1 -1;
#X obj 646 221 bng 15 250 50 0 empty empty empty 17 7 0 10 -262144
-1 -1;
#X obj 520 246 f;
#X floatatom 520 269 5 0 0 0 - - -;
#X obj 126 168 vsl 22 64 0 127 0 0 empty empty empty 0 -9 0 10 -262144
-1 -1 5357 1;
#X obj 104 168 vsl 22 64 0 127 0 0 empty empty empty 0 -9 0 10 -262144
-1 -1 2331 1;
#X obj 148 168 vsl 22 64 0 127 0 0 empty empty empty 0 -9 0 10 -262144
-1 -1 4217 1;
#X obj 556 248 f;
#X floatatom 556 271 5 0 0 0 - - -;
#X obj 591 255 f;
#X floatatom 591 278 5 0 0 0 - - -;
#X obj 627 264 f;
#X floatatom 627 287 5 0 0 0 - - -;
#X obj 664 272 f;
#X floatatom 664 295 5 0 0 0 - - -;
#X obj 700 282 f;
#X floatatom 700 305 5 0 0 0 - - -;
#X obj 736 290 f;
#X floatatom 736 313 5 0 0 0 - - -;
#X obj 772 300 f;
#X floatatom 772 323 5 0 0 0 - - -;
#X obj 192 168 vsl 22 64 0 127 0 0 empty empty empty 0 -9 0 10 -262144
-1 -1 149 1;
#X obj 170 168 vsl 22 64 0 127 0 0 empty empty empty 0 -9 0 10 -262144
-1 -1 5953 1;
#X obj 214 168 vsl 22 64 0 127 0 0 empty empty empty 0 -9 0 10 -262144
-1 -1 4217 1;
#X obj 236 168 vsl 22 64 0 127 0 0 empty empty empty 0 -9 0 10 -262144
-1 -1 149 1;
#X obj 258 168 vsl 22 64 0 127 0 0 empty empty empty 0 -9 0 10 -262144
-1 -1 1538 1;
#X obj 520 165 sel 0 1 2 3 4 5 6 7 8 9;
#X obj 664 221 bng 15 250 50 0 empty empty empty 17 7 0 10 -262144
-1 -1;
#X obj 682 221 bng 15 250 50 0 empty empty empty 17 7 0 10 -262144
-1 -1;
#X obj 812 310 f;
#X floatatom 813 330 5 0 0 0 - - -;
#X obj 850 318 f;
#X floatatom 851 338 5 0 0 0 - - -;
#X obj 281 213 tgl 22 0 empty empty empty 17 7 0 10 -262144 -1 -1 0
1;
#X obj 304 213 tgl 22 0 empty empty empty 17 7 0 10 -262144 -1 -1 0
1;
#X obj 104 280 outlet;
#X obj 126 328 outlet;
#X obj 148 375 outlet;
#X obj 170 420 outlet;
#X obj 192 464 outlet;
#X obj 214 510 outlet;
#X obj 236 562 outlet;
#X obj 258 613 outlet;
#X obj 281 252 outlet;
#X obj 305 292 outlet;
#X obj 258 103 bng 15 250 50 0 empty empty empty 17 7 0 10 -262144
-1 -1;
#X text 274 101 [open];
#X obj 258 123 bng 15 250 50 0 empty empty empty 17 7 0 10 -262144
-1 -1;
#X text 274 121 [close];
#X obj 104 261 / 127;
#X obj 126 309 / 127;
#X obj 148 356 / 127;
#X obj 170 401 / 127;
#X obj 192 445 / 127;
#X obj 214 491 / 127;
#X obj 236 543 / 127;
#X obj 258 594 / 127;
#X connect 0 0 7 0;
#X connect 1 0 5 0;
#X connect 1 0 7 0;
#X connect 3 0 7 0;
#X connect 4 0 1 0;
#X connect 4 0 9 0;
#X connect 5 0 8 0;
#X connect 6 0 3 0;
#X connect 7 0 2 0;
#X connect 7 0 9 0;
#X connect 8 0 7 0;
#X connect 9 0 10 0;
#X connect 10 0 11 0;
#X connect 10 1 12 0;
#X connect 11 0 13 0;
#X connect 12 0 22 1;
#X connect 12 0 27 1;
#X connect 12 0 29 1;
#X connect 12 0 31 1;
#X connect 12 0 33 1;
#X connect 12 0 35 1;
#X connect 12 0 37 1;
#X connect 12 0 39 1;
#X connect 12 0 49 1;
#X connect 12 0 51 1;
#X connect 13 0 46 0;
#X connect 14 0 27 0;
#X connect 15 0 29 0;
#X connect 16 0 22 0;
#X connect 17 0 35 0;
#X connect 18 0 37 0;
#X connect 19 0 31 0;
#X connect 20 0 33 0;
#X connect 21 0 39 0;
#X connect 22 0 23 0;
#X connect 23 0 25 0;
#X connect 24 0 70 0;
#X connect 25 0 69 0;
#X connect 26 0 71 0;
#X connect 27 0 28 0;
#X connect 28 0 24 0;
#X connect 29 0 30 0;
#X connect 30 0 26 0;
#X connect 31 0 32 0;
#X connect 32 0 42 0;
#X connect 33 0 34 0;
#X connect 34 0 41 0;
#X connect 35 0 36 0;
#X connect 36 0 43 0;
#X connect 37 0 38 0;
#X connect 38 0 44 0;
#X connect 39 0 40 0;
#X connect 40 0 45 0;
#X connect 41 0 73 0;
#X connect 42 0 72 0;
#X connect 43 0 74 0;
#X connect 44 0 75 0;
#X connect 45 0 76 0;
#X connect 46 0 16 0;
#X connect 46 1 14 0;
#X connect 46 2 15 0;
#X connect 46 3 19 0;
#X connect 46 4 20 0;
#X connect 46 5 17 0;
#X connect 46 6 18 0;
#X connect 46 7 21 0;
#X connect 46 8 47 0;
#X connect 46 9 48 0;
#X connect 47 0 49 0;
#X connect 48 0 51 0;
#X connect 49 0 50 0;
#X connect 50 0 53 0;
#X connect 51 0 52 0;
#X connect 52 0 54 0;
#X connect 53 0 63 0;
#X connect 54 0 64 0;
#X connect 65 0 4 0;
#X connect 67 0 6 0;
#X connect 69 0 55 0;
#X connect 70 0 56 0;
#X connect 71 0 57 0;
#X connect 72 0 58 0;
#X connect 73 0 59 0;
#X connect 74 0 60 0;
#X connect 75 0 61 0;
#X connect 76 0 62 0;
#X coords 0 -1 1 1 230 140 1 100 100;
#X restore 50 -240 pd controllers;
#N canvas 603 237 317 360 input 0;
#X obj -15 2 adc~ 1;
#X obj 27 2 adc~ 2;
#X obj 53 47 env~;
#X obj 94 47 env~;
#X obj 105 108 vsl 15 64 -100 12 0 0 empty empty empty 0 -9 0 10 -204786
-1 -1 52 1;
#X obj 123 108 vsl 15 64 -100 12 0 0 empty empty empty 0 -9 0 10 -204800
-1 -1 0 1;
#X obj 53 68 - 100;
#X obj 94 68 - 100;
#X obj 105 178 tgl 15 0 empty empty empty 17 7 0 10 -262144 -1 -1 1
1;
#X obj 124 178 tgl 15 0 empty empty empty 17 7 0 10 -262144 -1 -1 0
1;
#X obj -15 210 spigot~;
#X obj 28 253 spigot~;
#X obj 24 301 s~ input_1;
#X obj 68 326 s~ input_2;
#X connect 0 0 2 0;
#X connect 0 0 10 0;
#X connect 1 0 3 0;
#X connect 1 0 11 0;
#X connect 2 0 6 0;
#X connect 3 0 7 0;
#X connect 6 0 4 0;
#X connect 7 0 5 0;
#X connect 8 0 10 1;
#X connect 9 0 11 1;
#X connect 10 1 12 0;
#X connect 11 1 13 0;
#X coords 0 -1 1 1 44 98 2 100 100;
#X restore -15 -222 pd input;
#X obj 884 -148 s~ drum machine;
#X obj 701 413 r~ drum macine;
#X obj 415 558 s~ dac_L;
#X obj 528 558 s~ dac_R;
#X obj 50 8 s reverb_room;
#X obj 74 35 s reverb_damp;
#X obj 99 62 s reverb_width;
#X obj 173 7 s delay_feedback;
#X obj 198 34 s delay_mix;
#X obj 223 -17 s reverb_mix;
#X obj 273 60 s reverb_freeze;
#X obj 149 125 s overdrive_drive;
#X obj 279 -375 r~ input_1;
#X obj 346 -375 r~ input_2;
#N canvas 149 15 926 693 mixer_4 0;
#X obj -568 118 inlet~;
#X obj -412 118 inlet~;
#X obj -235 121 inlet~;
#X obj -56 122 inlet~;
#X obj -567 660 outlet~;
#X obj -497 661 outlet~;
#X obj 104 125 vsl 25 48 0 1 0 0 empty empty empty 0 -9 0 10 -212980
-1 -1 3760 0;
#X obj 133 125 vsl 25 48 0 1 0 0 empty empty empty 0 -9 0 10 -176043
-1 -1 3760 0;
#X obj 162 125 vsl 25 48 0 1 0 0 empty empty empty 0 -9 0 10 -143267
-1 -1 3760 0;
#X obj 191 125 vsl 25 48 0 1 0 0 empty empty empty 0 -9 0 10 -102297
-1 -1 3760 0;
#X obj 107 180 hsl 20 15 0 1 0 0 empty empty empty -2 -8 0 10 -262144
-1 -1 0 0;
#X obj 136 180 hsl 20 15 0 1 0 0 empty empty empty -2 -8 0 10 -262144
-1 -1 1900 0;
#X obj 165 180 hsl 20 15 0 1 0 0 empty empty empty -2 -8 0 10 -262144
-1 -1 950 0;
#X obj 194 180 hsl 20 15 0 1 0 0 empty empty empty -2 -8 0 10 -262144
-1 -1 950 0;
#X obj -568 371 *~;
#X obj -411 376 *~;
#X obj -236 378 *~;
#X obj -56 372 *~;
#X obj -568 556 *~;
#X obj -498 557 *~;
#X obj -553 437 expr 1 - $f1;
#X floatatom -482 461 5 0 0 0 - - -;
#X obj -482 502 line~;
#X floatatom -553 458 5 0 0 0 - - -;
#X obj -553 499 line~;
#X obj -553 478 pack 0 100;
#X obj -482 481 pack 0 100;
#X obj -412 561 *~;
#X obj -342 562 *~;
#X obj -397 438 expr 1 - $f1;
#X floatatom -326 466 5 0 0 0 - - -;
#X obj -326 507 line~;
#X floatatom -397 463 5 0 0 0 - - -;
#X obj -397 504 line~;
#X obj -397 483 pack 0 100;
#X obj -326 486 pack 0 100;
#X obj -237 567 *~;
#X obj -167 568 *~;
#X obj -222 444 expr 1 - $f1;
#X floatatom -151 472 5 0 0 0 - - -;
#X obj -151 513 line~;
#X floatatom -222 469 5 0 0 0 - - -;
#X obj -222 510 line~;
#X obj -222 489 pack 0 100;
#X obj -151 492 pack 0 100;
#X obj -57 570 *~;
#X obj 13 571 *~;
#X obj -42 447 expr 1 - $f1;
#X floatatom 29 475 5 0 0 0 - - -;
#X obj 29 516 line~;
#X floatatom -42 472 5 0 0 0 - - -;
#X obj -42 513 line~;
#X obj -42 492 pack 0 100;
#X obj 29 495 pack 0 100;
#X floatatom -552 309 5 0 0 0 - - -;
#X obj -552 350 line~;
#X obj -552 329 pack 0 100;
#X floatatom -396 314 5 0 0 0 - - -;
#X obj -396 355 line~;
#X obj -396 334 pack 0 100;
#X floatatom -221 315 5 0 0 0 - - -;
#X obj -221 356 line~;
#X obj -221 335 pack 0 100;
#X floatatom -40 310 5 0 0 0 - - -;
#X obj -40 351 line~;
#X obj -40 330 pack 0 100;
#X obj 233 141 loadbang;
#X msg 233 163 0.5;
#X msg 233 106 0.8;
#X obj 200 195 bng 8 250 50 0 empty empty empty 17 7 0 10 -262144 -1
-1;
#X msg 286 203 0.5;
#X obj 172 195 bng 8 250 50 0 empty empty empty 17 7 0 10 -262144 -1
-1;
#X msg 286 224 0.5;
#X obj 142 195 bng 8 250 50 0 empty empty empty 17 7 0 10 -262144 -1
-1;
#X msg 286 245 0.5;
#X obj 113 195 bng 8 250 50 0 empty empty empty 17 7 0 10 -262144 -1
-1;
#X msg 286 266 0.5;
#X connect 0 0 14 0;
#X connect 1 0 15 0;
#X connect 2 0 16 0;
#X connect 3 0 17 0;
#X connect 6 0 54 0;
#X connect 7 0 57 0;
#X connect 8 0 60 0;
#X connect 9 0 63 0;
#X connect 10 0 20 0;
#X connect 10 0 21 0;
#X connect 11 0 29 0;
#X connect 11 0 30 0;
#X connect 12 0 38 0;
#X connect 12 0 39 0;
#X connect 13 0 47 0;
#X connect 13 0 48 0;
#X connect 14 0 18 0;
#X connect 14 0 19 0;
#X connect 15 0 27 0;
#X connect 15 0 28 0;
#X connect 16 0 36 0;
#X connect 16 0 37 0;
#X connect 17 0 45 0;
#X connect 17 0 46 0;
#X connect 18 0 4 0;
#X connect 19 0 5 0;
#X connect 20 0 23 0;
#X connect 21 0 26 0;
#X connect 22 0 19 1;
#X connect 23 0 25 0;
#X connect 24 0 18 1;
#X connect 25 0 24 0;
#X connect 26 0 22 0;
#X connect 27 0 4 0;
#X connect 28 0 5 0;
#X connect 29 0 32 0;
#X connect 30 0 35 0;
#X connect 31 0 28 1;
#X connect 32 0 34 0;
#X connect 33 0 27 1;
#X connect 34 0 33 0;
#X connect 35 0 31 0;
#X connect 36 0 4 0;
#X connect 37 0 5 0;
#X connect 38 0 41 0;
#X connect 39 0 44 0;
#X connect 40 0 37 1;
#X connect 41 0 43 0;
#X connect 42 0 36 1;
#X connect 43 0 42 0;
#X connect 44 0 40 0;
#X connect 45 0 4 0;
#X connect 46 0 5 0;
#X connect 47 0 50 0;
#X connect 48 0 53 0;
#X connect 49 0 46 1;
#X connect 50 0 52 0;
#X connect 51 0 45 1;
#X connect 52 0 51 0;
#X connect 53 0 49 0;
#X connect 54 0 56 0;
#X connect 55 0 14 1;
#X connect 56 0 55 0;
#X connect 57 0 59 0;
#X connect 58 0 15 1;
#X connect 59 0 58 0;
#X connect 60 0 62 0;
#X connect 61 0 16 1;
#X connect 62 0 61 0;
#X connect 63 0 65 0;
#X connect 64 0 17 1;
#X connect 65 0 64 0;
#X connect 66 0 67 0;
#X connect 66 0 68 0;
#X connect 67 0 10 0;
#X connect 67 0 11 0;
#X connect 67 0 12 0;
#X connect 67 0 13 0;
#X connect 68 0 6 0;
#X connect 68 0 7 0;
#X connect 68 0 8 0;
#X connect 68 0 9 0;
#X connect 69 0 70 0;
#X connect 70 0 13 0;
#X connect 71 0 72 0;
#X connect 72 0 12 0;
#X connect 73 0 74 0;
#X connect 74 0 11 0;
#X connect 75 0 76 0;
#X connect 76 0 10 0;
#X coords 0 -1 1 1 120 120 1 100 100;
#X restore 416 431 pd mixer_4;
#X obj 248 83 s looper_rec;
#N canvas 243 0 751 710 looper2 0;
#X obj -121 41 inlet~;
#X obj -120 550 outlet~;
#X floatatom 175 392 8 0 0 0 - - -;
#X obj 178 287 hsl 128 15 0 10000 0 0 empty empty empty -2 -8 0 10
-262144 -1 -1 12700 1;
#X obj 376 429 vsl 30 64 0 1 0 0 empty empty empty 0 -9 0 10 -262144
-1 -1 6294 1;
#X obj 121 512 +~;
#X obj 174 496 *~ 1;
#X obj 353 558 vsl 16 50 0 1 0 0 empty empty empty 0 -9 0 10 -262144
-1 -1 4895 1;
#X obj 121 611 *~;
#X obj 105 230 line~ \$0 10;
#X obj 105 130 tgl 25 0 empty empty empty 17 7 0 10 -262144 -1 -1 0
1;
#X obj 91 383 *~;
#X obj 249 160 bng 15 250 50 0 empty empty empty 17 7 0 10 -262144
-1 -1;
#X msg 136 590 0;
#X text 204 159 [clear];
#X text 101 114 [rec];
#X msg 195 473 0;
#X obj 487 331 timer;
#X obj 487 232 sel 0 1;
#X obj 487 311 bng 15 250 50 0 empty empty empty 17 7 0 10 -262144
-1 -1;
#X obj 514 311 bng 15 250 50 0 empty empty empty 17 7 0 10 -262144
-1 -1;
#X floatatom 487 354 8 0 0 0 - - -;
#X obj 375 250 loadbang;
#X obj 105 43 r looper_rec;
#X obj 175 439 delread~ looper1 1000;
#X obj 175 370 line \$0 10;
#X obj 141 549 delwrite~ looper1 10000;
#X obj 390 215 spigot;
#X obj 423 134 tgl 15 0 empty empty empty 17 7 0 10 -262144 -1 -1 1
1;
#X obj 423 112 bng 15 250 50 0 empty empty empty 17 7 0 10 -262144
-1 -1;
#X obj 487 92 loadbang;
#X msg 487 117 1;
#X obj 411 525 counter;
#X floatatom 450 408 8 0 0 0 - - -;
#X obj 450 430 / 10;
#X obj 514 441 metro 10;
#X obj 514 413 tgl 15 0 empty empty empty 17 7 0 10 -262144 -1 -1 0
1;
#X obj 514 467 bng 15 250 50 0 empty empty empty 17 7 0 10 -262144
-1 -1;
#X obj 135 130 hsl 128 25 0 100 0 0 empty empty empty -2 -8 0 10 -262144
-1 -1 0 1;
#X obj 411 556 expr ($f1 * 100) / $f2;
#X floatatom 249 46 5 0 0 0 - - -;
#X msg 375 270 10000;
#X obj 121 681 outlet~;
#X obj -78 41 inlet~;
#X obj -83 605 outlet~;
#X obj 170 681 outlet~;
#X obj 229 461 delread~ looper2 1000;
#X obj 228 506 *~ 1;
#X msg 249 484 0;
#X obj 122 383 *~;
#X obj 169 522 +~;
#X obj 200 570 delwrite~ looper2 10000;
#X obj 169 614 *~;
#X msg 184 592 0;
#X obj -40 414 expr $f1 - 1;
#X obj -40 434 abs;
#X obj -40 467 tgl 15 0 empty empty empty 17 7 0 10 -262144 -1 -1 1
1;
#X obj -40 384 tgl 15 0 empty empty empty 17 7 0 10 -262144 -1 -1 0
1;
#X obj -120 482 spigot~;
#X obj 42 428 loadbang;
#X msg 42 450 1;
#X obj -79 514 spigot~;
#X msg 376 305 0.999;
#X obj 138 259 line~ \$0 10;
#X obj 294 47 r looper_clear;
#X obj 121 647 spigot~;
#X obj 170 648 spigot~;
#X obj 105 160 tgl 15 0 empty empty empty 17 7 0 10 -262144 -1 -1 0
1;
#X text 120 159 [mute];
#X connect 0 0 11 0;
#X connect 0 0 58 0;
#X connect 2 0 24 0;
#X connect 2 0 33 0;
#X connect 2 0 46 0;
#X connect 3 0 25 0;
#X connect 4 0 6 1;
#X connect 4 0 47 1;
#X connect 5 0 8 0;
#X connect 5 0 26 0;
#X connect 6 0 5 1;
#X connect 7 0 8 1;
#X connect 7 0 52 1;
#X connect 8 0 65 0;
#X connect 9 0 11 1;
#X connect 10 0 9 0;
#X connect 10 0 62 0;
#X connect 10 0 27 0;
#X connect 10 0 57 0;
#X connect 10 0 63 0;
#X connect 11 0 5 0;
#X connect 12 0 16 0;
#X connect 12 0 13 0;
#X connect 12 0 36 0;
#X connect 12 0 40 0;
#X connect 12 0 28 0;
#X connect 12 0 41 0;
#X connect 12 0 48 0;
#X connect 12 0 53 0;
#X connect 13 0 8 1;
#X connect 16 0 6 1;
#X connect 17 0 21 0;
#X connect 18 0 20 0;
#X connect 18 1 19 0;
#X connect 19 0 17 0;
#X connect 20 0 17 1;
#X connect 20 0 29 0;
#X connect 20 0 36 0;
#X connect 21 0 25 0;
#X connect 22 0 41 0;
#X connect 22 0 62 0;
#X connect 23 0 10 0;
#X connect 24 0 6 0;
#X connect 25 0 2 0;
#X connect 27 0 18 0;
#X connect 28 0 27 1;
#X connect 29 0 28 0;
#X connect 30 0 31 0;
#X connect 31 0 28 0;
#X connect 32 0 39 0;
#X connect 33 0 34 0;
#X connect 34 0 32 4;
#X connect 34 0 39 1;
#X connect 35 0 37 0;
#X connect 36 0 35 0;
#X connect 37 0 32 0;
#X connect 39 0 38 0;
#X connect 40 0 38 0;
#X connect 41 0 3 0;
#X connect 43 0 49 0;
#X connect 43 0 61 0;
#X connect 46 0 47 0;
#X connect 47 0 50 1;
#X connect 48 0 47 1;
#X connect 49 0 50 0;
#X connect 50 0 51 0;
#X connect 50 0 52 0;
#X connect 52 0 66 0;
#X connect 53 0 52 1;
#X connect 54 0 55 0;
#X connect 55 0 56 0;
#X connect 56 0 58 1;
#X connect 56 0 61 1;
#X connect 57 0 54 0;
#X connect 58 1 1 0;
#X connect 59 0 60 0;
#X connect 60 0 56 0;
#X connect 61 1 44 0;
#X connect 62 0 4 0;
#X connect 62 0 7 0;
#X connect 63 0 49 1;
#X connect 64 0 12 0;
#X connect 65 0 42 0;
#X connect 66 0 45 0;
#X connect 67 0 65 1;
#X connect 67 0 66 1;
#X coords 0 -1 1 1 170 80 1 100 100;
#X restore 416 123 pd looper2;
#X obj 39 -328 tuner;
#N canvas 459 138 345 474 OSC 0;
#X obj 9 405 sendOSC;
#X floatatom 9 456 5 0 0 0 - - -;
#X msg 9 156 disconnect;
#X msg 167 254 [;
#X msg 202 340 ];
#X floatatom 48 438 5 0 0 0 - - -;
#X msg 9 22 connect localhost 12000;
#X obj 202 239 bng 15 250 50 0 empty empty empty 17 7 0 10 -262144
-1 -1;
#X obj 202 268 bng 15 250 50 0 empty empty empty 17 7 0 10 -262144
-1 -1;
#X obj 202 321 bng 15 250 50 0 empty empty empty 17 7 0 10 -262144
-1 -1;
#X obj 202 213 bng 15 250 50 0 empty empty empty 17 7 0 10 -262144
-1 -1;
#X msg 192 288 send /bla 0;
#X msg 192 193 set send /bla \$1;
#X obj 192 171 int;
#X obj 104 141 bng 15 250 50 0 empty empty empty 17 7 0 10 -262144
-1 -1;
#X obj 104 123 bng 15 250 50 0 empty empty empty 17 7 0 10 -262144
-1 -1;
#X text 119 121 [connect];
#X text 119 140 [close];
#X obj 192 20 inlet;
#X floatatom 192 121 5 0 0 0 - - -;
#X obj 192 141 * 127;
#X connect 0 0 1 0;
#X connect 0 1 5 0;
#X connect 2 0 0 0;
#X connect 3 0 0 0;
#X connect 4 0 0 0;
#X connect 6 0 0 0;
#X connect 7 0 3 0;
#X connect 7 0 8 0;
#X connect 8 0 11 0;
#X connect 8 0 9 0;
#X connect 9 0 4 0;
#X connect 10 0 7 0;
#X connect 11 0 0 0;
#X connect 12 0 11 0;
#X connect 12 0 10 0;
#X connect 13 0 12 0;
#X connect 14 0 2 0;
#X connect 15 0 6 0;
#X connect 18 0 19 0;
#X connect 19 0 20 0;
#X connect 20 0 13 0;
#X coords 0 -1 1 1 85 60 1 100 100;
#X restore 2 178 pd OSC;
#N canvas 119 163 495 358 extract 0;
#X msg 104 193 stop;
#X obj 282 319 writesf~ 2;
#X obj 104 123 bng 15 250 50 0 empty empty empty 17 7 0 10 -262144
-1 -1;
#X obj 229 122 bng 15 250 50 0 empty empty empty 17 7 0 10 -262144
-1 -1;
#X obj 104 142 bng 15 250 50 0 empty empty empty 17 7 0 10 -262144
-1 -1;
#X text 120 122 [start];
#X text 120 141 [stop];
#X obj 242 301 inlet~;
#X obj 340 297 inlet~;
#X obj 229 144 random 99999;
#X floatatom 104 161 8 0 0 0 - - -;
#X msg 282 226 open record_74363.wav;
#X msg 282 177 set open record_\$1.wav;
#X msg 238 232 start;
#X obj 238 194 bng 15 250 50 0 empty empty empty 17 7 0 10 -262144
-1 -1;
#X connect 0 0 1 0;
#X connect 2 0 3 0;
#X connect 3 0 9 0;
#X connect 4 0 0 0;
#X connect 7 0 1 0;
#X connect 8 0 1 1;
#X connect 9 0 10 0;
#X connect 10 0 12 0;
#X connect 11 0 1 0;
#X connect 12 0 11 0;
#X connect 12 0 14 0;
#X connect 13 0 1 0;
#X connect 14 0 11 0;
#X connect 14 0 13 0;
#X coords 0 -1 1 1 70 80 1 100 100;
#X restore -4 414 pd extract;
#X obj 273 -54 s looper_clear;
#N canvas 0 0 612 483 equal_power_crossfade 0;
#X obj 33 48 inlet~;
#X obj 244 58 inlet;
#X obj 33 332 outlet~;
#X obj 319 54 loadbang;
#X msg 319 74 0.5;
#X obj 49 194 expr cos($f1 * 3.14159 / 2);
#X obj 244 194 expr sin($f1 * 3.14159 / 2);
#X obj 244 134 clip 0 1;
#N canvas 0 0 450 300 pan_core 0;
#X obj 21 106 inlet~;
#X obj 226 126 inlet;
#X obj 80 453 *~;
#X obj 144 497 outlet~;
#X obj 210 452 *~;
#X obj 226 428 line~;
#X obj 96 428 line~;
#X obj 96 127 inlet;
#X obj 179 104 inlet~;
#X text 244 544 comment;
#X obj 96 389 pack f 5;
#X obj 226 389 pack f 5;
#X text 223 540 Hans-Christoph Steiner \, 2004;
#X text 223 526 Adapted from [pan_core~];
#X connect 0 0 2 0;
#X connect 1 0 11 0;
#X connect 2 0 3 0;
#X connect 4 0 3 0;
#X connect 5 0 4 1;
#X connect 6 0 2 1;
#X connect 7 0 10 0;
#X connect 8 0 4 0;
#X connect 10 0 6 0;
#X connect 11 0 5 0;
#X restore 39 266 pd pan_core;
#X text 256 437 Adapted from [equal_power_pan~] \, Hans-Christoph Steiner
\, 2004;
#X text 411 449 comment;
#X obj 128 46 inlet~;
#X connect 0 0 8 0;
#X connect 1 0 7 0;
#X connect 3 0 4 0;
#X connect 4 0 7 0;
#X connect 5 0 8 1;
#X connect 6 0 8 3;
#X connect 7 0 5 0;
#X connect 7 0 6 0;
#X connect 8 0 2 0;
#X connect 11 0 8 2;
#X restore 729 319 pd equal_power_crossfade;
#X obj 873 274 hsl 128 25 0 1 0 0 empty crossfade Dry_---_Wet_(crossfade)
-2 -8 0 10 -4034 -1 -1 0 1;
#X obj 725 -94 Guitar_specdelay~;
#X obj 724 264 *~ 10;
#N canvas 0 0 450 300 init 0;
#X obj 217 41 loadbang;
#X msg 217 77 \; del-sin 1 \; fb-sin 1 \; gain-flat 1 \; lp-freq 220
\; slope -0.04 \; crossfade 0.5 \;;
#X connect 0 0 1 0;
#X restore 704 -116 pd init;
#N canvas 108 0 943 700 stereo 0;
#X floatatom 32 115 0 0 0 0 - - -;
#X floatatom 152 81 0 0 0 0 - - -;
#X obj 90 154 biquad~;
#X floatatom 210 81 0 0 0 0 - - -;
#X obj 99 132 equalizer 5000 70 8;
#X obj 152 104 t b f;
#X obj 210 104 t b f;
#X obj 90 7 inlet~;
#X obj 72 1083 outlet~;
#X obj 32 75 loadbang;
#X msg 32 95 100;
#X floatatom 33 256 0 0 0 0 - - -;
#X floatatom 253 211 0 0 0 0 - - -;
#X obj 89 295 biquad~;
#X floatatom 311 211 0 0 0 0 - - -;
#X obj 98 273 equalizer 5000 70 8;
#X obj 151 245 t b f;
#X obj 199 245 t b f;
#X obj 33 216 loadbang;
#X msg 33 236 200;
#X floatatom 33 382 0 0 0 0 - - -;
#X floatatom 374 326 0 0 0 0 - - -;
#X obj 90 422 biquad~;
#X floatatom 432 326 0 0 0 0 - - -;
#X obj 99 399 equalizer 5000 70 8;
#X obj 152 371 t b f;
#X obj 200 371 t b f;
#X obj 33 342 loadbang;
#X floatatom 35 510 0 0 0 0 - - -;
#X floatatom 496 430 0 0 0 0 - - -;
#X obj 90 549 biquad~;
#X floatatom 554 430 0 0 0 0 - - -;
#X obj 99 527 equalizer 5000 70 8;
#X obj 152 499 t b f;
#X obj 200 499 t b f;
#X obj 35 470 loadbang;
#X floatatom 36 659 0 0 0 0 - - -;
#X floatatom 626 549 0 0 0 0 - - -;
#X obj 90 698 biquad~;
#X floatatom 659 550 0 0 0 0 - - -;
#X obj 99 676 equalizer 5000 70 8;
#X obj 152 648 t b f;
#X obj 200 648 t b f;
#X obj 36 619 loadbang;
#X floatatom 38 807 0 0 0 0 - - -;
#X floatatom 731 681 0 0 0 0 - - -;
#X obj 91 846 biquad~;
#X floatatom 789 681 0 0 0 0 - - -;
#X obj 100 824 equalizer 5000 70 8;
#X obj 153 796 t b f;
#X obj 201 796 t b f;
#X obj 38 767 loadbang;
#X msg 33 362 400;
#X msg 35 490 800;
#X msg 36 639 1600;
#X msg 38 787 3200;
#X obj 778 118 loadbang;
#X msg 778 139 0;
#X obj 834 118 loadbang;
#X msg 834 140 100;
#X obj 834 162 s q;
#X obj 778 161 s b;
#X obj 507 48 vsl 24 64 -10 10 0 0 empty empty empty 0 -9 0 10 -261681
-1 -1 3150 1;
#X obj 537 48 vsl 24 64 -10 10 0 0 empty empty empty 0 -9 0 10 -261351
-1 -1 3150 1;
#X obj 507 184 knob 24 24 0 300 0 0 empty empty empty 0 -8 0 8 -262144
-1 -1 767 1;
#X obj 537 184 knob 24 24 0 300 0 0 empty empty empty 0 -8 0 8 -262144
-1 -1 767 1;
#X obj 567 184 knob 24 24 0 300 0 0 empty empty empty 0 -8 0 8 -262144
-1 -1 767 1;
#X obj 597 184 knob 24 24 0 300 0 0 empty empty empty 0 -8 0 8 -262144
-1 -1 767 1;
#X obj 627 184 knob 24 24 0 300 0 0 empty empty empty 0 -8 0 8 -262144
-1 -1 767 1;
#X obj 657 184 knob 24 24 0 300 0 0 empty empty empty 0 -8 0 8 -262144
-1 -1 767 1;
#X obj 567 48 vsl 24 64 -10 10 0 0 empty empty empty 0 -9 0 10 -261088
-1 -1 3150 1;
#X obj 597 48 vsl 24 64 -10 10 0 0 empty empty empty 0 -9 0 10 -260826
-1 -1 1850 1;
#X obj 626 48 vsl 24 64 -10 10 0 0 empty empty empty 0 -9 0 10 -260560
-1 -1 150 1;
#X obj 656 48 vsl 24 64 -10 10 0 0 empty empty empty 0 -9 0 10 -260113
-1 -1 0 1;
#X text 505 28 100;
#X text 534 28 200;
#X text 565 28 400;
#X text 594 28 800;
#X text 624 28 1.6K;
#X text 654 28 3.2K;
#X obj 471 165 r q;
#X obj 471 29 r b;
#X obj 727 48 vsl 30 72 0 1.5 0 0 empty empty empty 0 -9 0 10 -184256
-1 -1 4200 0;
#X obj 90 1061 *~;
#X obj 727 984 line~;
#X msg 754 960 100;
#X floatatom 727 939 5 0 0 0 - - -;
#X obj 780 9 loadbang;
#X obj 704 123 tgl 15 0 empty empty empty 17 7 0 10 -262144 -1 -1 1
1;
#X text 720 123 on/off;
#X obj 89 42 *~ 1;
#X obj 731 248 sel 0 1;
#X msg 750 271 0;
#X msg 750 292 1;
#X obj 8 50 *~ 0;
#X msg 731 327 1;
#X msg 731 350 0;
#X text 723 29 [gain];
#X msg 780 29 1;
#X obj 687 48 vsl 24 64 -10 10 0 0 empty empty empty 0 -9 0 10 -259654
-1 -1 0 1;
#X text 685 28 6.4K;
#X obj 687 184 knob 24 24 0 300 0 0 empty empty empty 0 -8 0 8 -262144
-1 -1 767 1;
#X floatatom 812 844 0 0 0 0 - - -;
#X floatatom 869 845 0 0 0 0 - - -;
#X obj 90 975 biquad~;
#X obj 99 953 equalizer 5000 70 8;
#X obj 152 925 t b f;
#X obj 200 925 t b f;
#X floatatom 11 936 0 0 0 0 - - -;
#X obj 11 896 loadbang;
#X msg 11 916 6400;
#X obj 141 1061 *~;
#X obj 133 1083 outlet~;
#X obj 140 1000 biquad~;
#X obj 139 869 biquad~;
#X obj 138 720 biquad~;
#X obj 137 571 biquad~;
#X obj 137 442 biquad~;
#X obj 136 316 biquad~;
#X obj 137 177 biquad~;
#X obj 138 38 *~ 1;
#X obj 137 7 inlet~;
#X obj 41 51 *~ 0;
#X connect 0 0 4 0;
#X connect 1 0 5 0;
#X connect 2 0 13 0;
#X connect 3 0 6 0;
#X connect 4 0 2 0;
#X connect 4 0 119 0;
#X connect 5 0 4 0;
#X connect 5 1 4 1;
#X connect 6 0 4 0;
#X connect 6 1 4 2;
#X connect 7 0 90 0;
#X connect 7 0 94 0;
#X connect 9 0 10 0;
#X connect 10 0 0 0;
#X connect 11 0 15 0;
#X connect 12 0 16 0;
#X connect 13 0 22 0;
#X connect 14 0 17 0;
#X connect 15 0 13 0;
#X connect 15 0 118 0;
#X connect 16 0 15 0;
#X connect 16 1 15 1;
#X connect 17 0 15 0;
#X connect 17 1 15 2;
#X connect 18 0 19 0;
#X connect 19 0 11 0;
#X connect 20 0 24 0;
#X connect 21 0 25 0;
#X connect 22 0 30 0;
#X connect 23 0 26 0;
#X connect 24 0 22 0;
#X connect 24 0 117 0;
#X connect 25 0 24 0;
#X connect 25 1 24 1;
#X connect 26 0 24 0;
#X connect 26 1 24 2;
#X connect 27 0 52 0;
#X connect 28 0 32 0;
#X connect 29 0 33 0;
#X connect 30 0 38 0;
#X connect 31 0 34 0;
#X connect 32 0 30 0;
#X connect 32 0 116 0;
#X connect 33 0 32 0;
#X connect 33 1 32 1;
#X connect 34 0 32 0;
#X connect 34 1 32 2;
#X connect 35 0 53 0;
#X connect 36 0 40 0;
#X connect 37 0 41 0;
#X connect 38 0 46 0;
#X connect 39 0 42 0;
#X connect 40 0 38 0;
#X connect 40 0 115 0;
#X connect 41 0 40 0;
#X connect 41 1 40 1;
#X connect 42 0 40 0;
#X connect 42 1 40 2;
#X connect 43 0 54 0;
#X connect 44 0 48 0;
#X connect 45 0 49 0;
#X connect 46 0 104 0;
#X connect 47 0 50 0;
#X connect 48 0 46 0;
#X connect 48 0 114 0;
#X connect 49 0 48 0;
#X connect 49 1 48 1;
#X connect 50 0 48 0;
#X connect 50 1 48 2;
#X connect 51 0 55 0;
#X connect 52 0 20 0;
#X connect 53 0 28 0;
#X connect 54 0 36 0;
#X connect 55 0 44 0;
#X connect 56 0 57 0;
#X connect 57 0 61 0;
#X connect 58 0 59 0;
#X connect 59 0 60 0;
#X connect 62 0 1 0;
#X connect 63 0 12 0;
#X connect 64 0 3 0;
#X connect 65 0 14 0;
#X connect 66 0 23 0;
#X connect 67 0 31 0;
#X connect 68 0 39 0;
#X connect 69 0 47 0;
#X connect 70 0 21 0;
#X connect 71 0 29 0;
#X connect 72 0 37 0;
#X connect 73 0 45 0;
#X connect 80 0 64 0;
#X connect 80 0 65 0;
#X connect 80 0 66 0;
#X connect 80 0 67 0;
#X connect 80 0 68 0;
#X connect 80 0 69 0;
#X connect 80 0 101 0;
#X connect 81 0 62 0;
#X connect 81 0 63 0;
#X connect 81 0 70 0;
#X connect 81 0 71 0;
#X connect 81 0 72 0;
#X connect 81 0 73 0;
#X connect 81 0 99 0;
#X connect 82 0 86 0;
#X connect 83 0 8 0;
#X connect 84 0 83 1;
#X connect 84 0 111 1;
#X connect 85 0 84 1;
#X connect 86 0 84 0;
#X connect 87 0 98 0;
#X connect 88 0 91 0;
#X connect 90 0 2 0;
#X connect 91 0 95 0;
#X connect 91 0 96 0;
#X connect 91 1 92 0;
#X connect 91 1 93 0;
#X connect 92 0 94 1;
#X connect 92 0 122 1;
#X connect 93 0 90 1;
#X connect 93 0 120 1;
#X connect 94 0 8 0;
#X connect 95 0 94 1;
#X connect 95 0 122 1;
#X connect 96 0 90 1;
#X connect 96 0 120 1;
#X connect 98 0 82 0;
#X connect 98 0 88 0;
#X connect 99 0 102 0;
#X connect 101 0 103 0;
#X connect 102 0 106 0;
#X connect 103 0 107 0;
#X connect 104 0 83 0;
#X connect 105 0 104 0;
#X connect 105 0 113 0;
#X connect 106 0 105 0;
#X connect 106 1 105 1;
#X connect 107 0 105 0;
#X connect 107 1 105 2;
#X connect 108 0 105 0;
#X connect 109 0 110 0;
#X connect 110 0 108 0;
#X connect 111 0 112 0;
#X connect 113 0 111 0;
#X connect 114 0 113 0;
#X connect 115 0 114 0;
#X connect 116 0 115 0;
#X connect 117 0 116 0;
#X connect 118 0 117 0;
#X connect 119 0 118 0;
#X connect 120 0 119 0;
#X connect 121 0 120 0;
#X connect 121 0 122 0;
#X connect 122 0 112 0;
#X coords 0 -1 1 1 265 125 1 500 15;
#X restore 147 204 pd stereo EQ;
#X obj -5 369 r~ dac_L;
#X obj 59 388 r~ dac_R;
#X connect 0 0 2 0;
#X connect 1 0 25 0;
#X connect 1 1 25 1;
#X connect 2 0 7 0;
#X connect 2 0 34 0;
#X connect 2 0 32 0;
#X connect 3 0 11 0;
#X connect 7 0 27 0;
#X connect 7 1 27 1;
#X connect 8 0 0 0;
#X connect 9 0 15 0;
#X connect 9 1 16 0;
#X connect 9 2 17 0;
#X connect 9 4 22 0;
#X connect 9 5 18 0;
#X connect 9 6 19 0;
#X connect 9 7 20 0;
#X connect 9 8 26 0;
#X connect 9 9 31 0;
#X connect 12 0 25 2;
#X connect 23 0 8 0;
#X connect 24 0 8 0;
#X connect 25 0 13 0;
#X connect 25 1 14 0;
#X connect 27 0 1 0;
#X connect 27 1 1 1;
#X connect 27 2 37 0;
#X connect 27 3 37 1;
#X connect 32 0 27 0;
#X connect 32 0 27 1;
#X connect 33 0 32 2;
#X connect 34 0 35 0;
#X connect 35 0 32 1;
#X connect 37 0 1 0;
#X connect 37 1 1 1;
#X connect 38 0 30 0;
#X connect 39 0 30 1;
