#N canvas 0 0 994 684 10;
#X obj 64 383 route 0;
#X obj 65 295 *~ 5;
#X obj 105 143 hsl 300 15 -1 1 0 0 empty cursor_tuner empty -2 -8 0
10 -262144 -1 -1 0 1;
#X obj 80 658 s cursor_tuner;
#N canvas 0 0 547 357 (subpatch) 0;
#X array Tuner_ticks 12 float 3;
#A 0 0 0 0 0 0 0 0 0 0 0 0 0;
#X coords 0 1 12 0 300 10 2 0 0;
#X restore 105 131 graph;
#X floatatom 237 158 7 0 0 0 - - -;
#X obj 168 243 loadbang;
#X obj 373 101 tgl 30 0 empty empty empty 17 7 0 10 -262144 -1 -1 0
1;
#X obj 475 220 switch~;
#X obj 373 46 loadbang;
#X msg 373 68 0;
#X text 250 110 |;
#X obj 467 425 s String1;
#X obj 527 425 s String2;
#X obj 587 425 s String3;
#X obj 647 425 s String4;
#X obj 707 425 s String5;
#X obj 767 425 s String6;
#X obj 133 476 r String1;
#X obj 193 476 r String2;
#X obj 253 476 r String3;
#X obj 313 476 r String4;
#X obj 373 476 r String5;
#X obj 433 476 r String6;
#X msg 84 332 npts 16384;
#X obj 64 405 unpack 0 0;
#X obj 65 363 sigmund~ -npeak 1 peaks;
#X msg 526 163 C;
#X msg 611 162 D;
#X msg 640 161 Eb;
#X msg 670 161 E;
#X obj 566 80 mod 12;
#X obj 566 100 sel 0 1 2 3 4 5 6 7 8 9 10 11;
#X msg 698 161 F;
#X msg 789 158 G;
#X msg 818 158 Ab;
#X msg 849 160 A;
#X msg 881 161 Bb;
#X msg 912 160 B;
#X obj 633 215 symbol;
#X obj 289 106 cnv 15 65 20 empty Note_name Note 5 10 0 14 -4034 -1
0;
#X msg 633 235 \; Note_name label \$1 \;;
#X msg 556 162 C-sharp;
#X msg 728 161 F-sharp;
#X obj 257 661 s midi_to_letter;
#X obj 566 60 r midi_to_letter;
#X msg 168 264 \; Tuner_ticks xticks 6 1 1 \; Note_name label Note
\;;
#X text 684 61 Get the letter corresponding to target note;
#X text 631 271 Display it in the GUI;
#X obj 503 291 inlet;
#X obj 64 529 IdentifyNote;
#X msg 503 343 28 35 40 45 50 55 59 64;
#X obj 831 426 s String7;
#X obj 503 371 unpack 0 0 0 0 0 0 0 0;
#X obj 895 426 s String8;
#X obj 498 476 r String7;
#X obj 562 476 r String8;
#X obj 459 530 IdentifyNote;
#X obj 144 529 IdentifyNote;
#X obj 223 529 IdentifyNote;
#X obj 302 530 IdentifyNote;
#X obj 381 530 IdentifyNote;
#X obj 542 530 IdentifyNote;
#X obj 623 530 IdentifyNote;
#X obj 32 245 r~ input_1;
#X obj 64 216 r~ input_2;
#X connect 0 0 25 0;
#X connect 1 0 26 0;
#X connect 2 0 5 0;
#X connect 6 0 46 0;
#X connect 6 0 51 0;
#X connect 6 0 24 0;
#X connect 7 0 8 0;
#X connect 9 0 10 0;
#X connect 10 0 7 0;
#X connect 18 0 50 1;
#X connect 19 0 58 1;
#X connect 20 0 59 1;
#X connect 21 0 60 1;
#X connect 22 0 61 1;
#X connect 23 0 57 1;
#X connect 24 0 26 0;
#X connect 25 0 50 0;
#X connect 25 0 57 0;
#X connect 25 0 58 0;
#X connect 25 0 59 0;
#X connect 25 0 60 0;
#X connect 25 0 61 0;
#X connect 25 0 62 0;
#X connect 25 0 63 0;
#X connect 26 0 0 0;
#X connect 27 0 39 0;
#X connect 28 0 39 0;
#X connect 29 0 39 0;
#X connect 30 0 39 0;
#X connect 31 0 32 0;
#X connect 32 0 27 0;
#X connect 32 1 42 0;
#X connect 32 2 28 0;
#X connect 32 3 29 0;
#X connect 32 4 30 0;
#X connect 32 5 33 0;
#X connect 32 6 43 0;
#X connect 32 7 34 0;
#X connect 32 8 35 0;
#X connect 32 9 36 0;
#X connect 32 10 37 0;
#X connect 32 11 38 0;
#X connect 33 0 39 0;
#X connect 34 0 39 0;
#X connect 35 0 39 0;
#X connect 36 0 39 0;
#X connect 37 0 39 0;
#X connect 38 0 39 0;
#X connect 39 0 41 0;
#X connect 42 0 39 0;
#X connect 43 0 39 0;
#X connect 45 0 31 0;
#X connect 49 0 53 0;
#X connect 50 0 3 0;
#X connect 50 1 44 0;
#X connect 51 0 53 0;
#X connect 53 0 12 0;
#X connect 53 1 13 0;
#X connect 53 2 14 0;
#X connect 53 3 15 0;
#X connect 53 4 16 0;
#X connect 53 5 17 0;
#X connect 53 6 52 0;
#X connect 53 7 54 0;
#X connect 55 0 62 1;
#X connect 56 0 63 1;
#X connect 57 0 3 0;
#X connect 57 1 44 0;
#X connect 58 0 3 0;
#X connect 58 1 44 0;
#X connect 59 0 3 0;
#X connect 59 1 44 0;
#X connect 60 0 3 0;
#X connect 60 1 44 0;
#X connect 61 0 3 0;
#X connect 61 1 44 0;
#X connect 62 0 3 0;
#X connect 62 1 44 0;
#X connect 63 0 3 0;
#X connect 63 1 44 0;
#X connect 64 0 1 0;
#X connect 65 0 1 0;
#X coords 0 -1 1 1 310 75 2 100 100;
